<svg xmlns="http://www.w3.org/2000/svg"><defs><font id="Material Design Icons" horiz-adv-x="24"><font-face font-family="Material Design Icons" units-per-em="512" ascent="448" descent="64"/><glyph glyph-name="access-point" unicode="" horiz-adv-x="512" d="M105.173 342.827C66.56 304.213 42.667 250.88 42.667 192c0-58.88 23.893-112.213 62.506-150.827l30.08 30.08C104.32 101.973 85.333 144.64 85.333 192c0 47.147 18.987 90.027 49.92 120.747l-30.08 30.08m301.654 0l-30.08-30.08c30.933-30.72 49.92-73.6 49.92-120.747 0-47.36-18.987-90.027-49.92-120.747l30.08-30.08C445.44 79.787 469.333 133.12 469.333 192c0 58.88-23.893 112.213-62.506 150.827m-241.28-60.374C142.293 259.2 128 227.2 128 192s14.293-67.2 37.547-90.453l30.08 30.08c-15.36 15.36-24.96 36.693-24.96 60.373s9.6 45.013 24.96 60.373l-30.08 30.08m180.906 0l-30.08-30.08c15.36-15.36 24.96-36.693 24.96-60.373s-9.6-45.013-24.96-60.373l30.08-30.08C369.707 124.8 384 156.8 384 192s-14.293 67.2-37.547 90.453M256 234.667c-23.467 0-42.667-19.2-42.667-42.667s19.2-42.667 42.667-42.667 42.667 19.2 42.667 42.667-19.2 42.667-42.667 42.667z"/><glyph glyph-name="access-point-network" unicode="" horiz-adv-x="512" d="M105.173 385.493C66.56 346.88 42.667 293.547 42.667 234.667c0-58.88 23.893-112.214 62.506-150.827l30.08 30.08c-30.933 30.72-49.92 73.387-49.92 120.747 0 47.146 18.987 90.026 49.92 120.746l-30.08 30.08m301.654 0l-30.08-30.08c30.933-30.72 49.92-73.6 49.92-120.746 0-47.36-18.987-90.027-49.92-120.747l30.08-30.08c38.613 38.613 62.506 91.947 62.506 150.827 0 58.88-23.893 112.213-62.506 150.826m-241.28-60.373C142.293 301.867 128 269.867 128 234.667s14.293-67.2 37.547-90.454l30.08 30.08c-15.36 15.36-24.96 36.694-24.96 60.374s9.6 45.013 24.96 60.373l-30.08 30.08m180.906 0l-30.08-30.08c15.36-15.36 24.96-36.693 24.96-60.373s-9.6-45.014-24.96-60.374l30.08-30.08C369.707 167.467 384 199.467 384 234.667c0 35.2-14.293 67.2-37.547 90.453M256 277.333c-23.467 0-42.667-19.2-42.667-42.666S232.533 192 256 192s42.667 19.2 42.667 42.667-19.2 42.666-42.667 42.666m-21.333-128V64h-21.334C201.6 64 192 54.4 192 42.667H42.667V0H192c0-11.733 9.6-21.333 21.333-21.333h85.334C310.4-21.333 320-11.733 320 0h149.333v42.667H320C320 54.4 310.4 64 298.667 64h-21.334v85.333h-42.666z"/><glyph glyph-name="account" unicode="" horiz-adv-x="512" d="M256 362.667c47.147 0 85.333-38.187 85.333-85.334S303.147 192 256 192s-85.333 38.187-85.333 85.333 38.186 85.334 85.333 85.334m0-213.334c94.293 0 170.667-38.186 170.667-85.333V21.333H85.333V64c0 47.147 76.374 85.333 170.667 85.333z"/><glyph glyph-name="account-alert" unicode="" horiz-adv-x="512" d="M213.333 362.667c47.147 0 85.334-38.187 85.334-85.334S260.48 192 213.333 192 128 230.187 128 277.333s38.187 85.334 85.333 85.334m0-213.334C307.627 149.333 384 111.147 384 64V21.333H42.667V64c0 47.147 76.373 85.333 170.666 85.333M426.667 192v106.667h42.666V192h-42.666m0-85.333v42.666h42.666v-42.666h-42.666z"/><glyph glyph-name="account-box" unicode="" horiz-adv-x="512" d="M128 85.333c0 42.667 85.333 66.134 128 66.134S384 128 384 85.333V64H128m192 192c0-35.413-28.587-64-64-64s-64 28.587-64 64 28.587 64 64 64 64-28.587 64-64M64 341.333V42.667C64 19.2 83.2 0 106.667 0h298.666C428.8 0 448 19.2 448 42.667v298.666C448 364.8 428.8 384 405.333 384H106.667C82.987 384 64 364.8 64 341.333z"/><glyph glyph-name="account-box-outline" unicode="" horiz-adv-x="512" d="M405.333 42.667H106.667v298.666h298.666m0 42.667H106.667C83.2 384 64 364.8 64 341.333V42.667C64 19.2 83.2 0 106.667 0h298.666C428.8 0 448 19.2 448 42.667v298.666c0 23.68-19.2 42.667-42.667 42.667M352 101.333c0 32-64 48-96 48s-96-16-96-48v-16h192m-96 101.334c26.453 0 48 21.546 48 48s-21.547 48-48 48-48-21.547-48-48 21.547-48 48-48z"/><glyph glyph-name="account-card-details" unicode="" horiz-adv-x="512" d="M42.667 384h426.666c22.4 0 42.667-20.267 42.667-42.667V42.667C512 20.267 491.733 0 469.333 0H42.667C20.267 0 0 20.267 0 42.667v298.666C0 363.733 20.267 384 42.667 384m256-64v-21.333h170.666V320H298.667m0-42.667V256h170.666v21.333H298.667m0-42.666v-21.334H448v21.334H298.667m-128-83.414c-42.667 0-128-23.253-128-65.92V64h256v21.333c0 42.667-85.334 65.92-128 65.92m0 168.747c-35.414 0-64-28.587-64-64s28.586-64 64-64 64 28.587 64 64-28.587 64-64 64z"/><glyph glyph-name="account-check" unicode="" horiz-adv-x="512" d="M192 341.333c41.173 0 74.667-33.493 74.667-74.666S233.173 192 192 192s-74.667 33.493-74.667 74.667 33.494 74.666 74.667 74.666m0-186.666c82.56 0 149.333-33.494 149.333-74.667V42.667H42.667V80c0 41.173 66.773 74.667 149.333 74.667m170.667 23.253l-58.667 64 24.747 24.747 33.92-33.92 76.586 76.586L464 279.253 362.667 177.92z"/><glyph glyph-name="account-circle" unicode="" horiz-adv-x="512" d="M256 38.4c-53.333 0-100.48 27.307-128 68.267.64 42.666 85.333 66.133 128 66.133s127.36-23.467 128-66.133C356.48 65.707 309.333 38.4 256 38.4m0 302.933c35.413 0 64-28.586 64-64s-28.587-64-64-64-64 28.587-64 64 28.587 64 64 64m0 64C138.24 405.333 42.667 309.76 42.667 192S138.24-21.333 256-21.333 469.333 74.24 469.333 192c0 117.973-96 213.333-213.333 213.333z"/><glyph glyph-name="account-convert" unicode="" horiz-adv-x="512" d="M160-10.667l28.8 28.587 81.28-81.28L256-64C121.813-64 11.947 39.253 1.067 170.667h32C40.747 90.453 90.667 22.613 160-10.667m192 405.334l-28.8-28.587-81.28 81.28L256 448c134.187 0 244.053-103.253 254.933-234.667h-32c-7.68 80.214-57.6 147.84-126.933 181.334M128 85.333c0 42.667 85.333 66.134 128 66.134S384 128 384 85.333V64H128v21.333M320 256c0-35.413-28.587-64-64-64s-64 28.587-64 64 28.587 64 64 64 64-28.587 64-64z"/><glyph glyph-name="account-edit" unicode="" horiz-adv-x="512" d="M462.933 163.2L441.6 141.867 397.867 185.6l21.333 21.333c4.48 4.48 11.947 4.48 16.427 0l27.306-27.306c4.48-4.48 4.48-11.947 0-16.427M256 43.947l129.28 129.28 43.733-43.734L299.947 0H256v43.947m0 105.386c-94.293 0-170.667-38.186-170.667-85.333V21.333h128v40.32l85.334 85.334c-14.08 1.706-28.374 2.346-42.667 2.346m0 213.334c-47.147 0-85.333-38.187-85.333-85.334S208.853 192 256 192s85.333 38.187 85.333 85.333-38.186 85.334-85.333 85.334z"/><glyph glyph-name="account-group" unicode="" horiz-adv-x="512" d="M256 320c-35.413 0-64-28.587-64-64s28.587-64 64-64 64 28.587 64 64-28.587 64-64 64m-128-46.293c-29.44 0-53.333-23.894-53.333-53.334S98.56 167.04 128 167.04c18.773 0 35.2 9.813 44.587 24.32-14.294 18.133-23.254 40.107-23.254 64.64 0 4.267 0 8.533.854 12.8-6.827 3.2-14.294 4.907-22.187 4.907m256 0c-7.893 0-15.36-1.707-22.187-4.907.854-4.267.854-8.533.854-12.8 0-24.533-8.96-46.507-23.254-64.64 9.387-14.507 25.814-24.32 44.587-24.32 29.44 0 53.333 23.893 53.333 53.333S413.44 273.707 384 273.707M256 149.333c-42.667 0-128-21.333-128-64V42.667h256v42.666c0 42.667-85.333 64-128 64M99.627 128.64C64 122.453 21.333 105.813 21.333 78.293V42.667h64v42.666c0 16.64 6.187 31.36 14.294 43.307m312.746 0c8.107-11.947 14.294-26.667 14.294-43.307V42.667h64v35.626c0 27.52-42.667 44.16-78.294 50.347z"/><glyph glyph-name="account-heart" unicode="" horiz-adv-x="512" d="M320 149.333c-57.6 0-170.667-27.733-170.667-85.333V21.333h341.334V64c0 57.6-113.067 85.333-170.667 85.333M320 192c47.147 0 85.333 38.187 85.333 85.333S367.147 362.667 320 362.667s-85.333-38.187-85.333-85.334S272.853 192 320 192m-213.333-64l-12.8 10.667C51.2 179.2 21.333 204.8 21.333 236.8c0 25.6 21.334 46.933 46.934 46.933 14.933 0 29.866-6.4 38.4-17.066 8.533 10.666 23.466 17.066 38.4 17.066 25.6 0 46.933-19.2 46.933-46.933 0-32-29.867-57.6-72.533-98.133L106.667 128z"/><glyph glyph-name="account-key" unicode="" horiz-adv-x="512" d="M234.667 234.667V192h-21.334v-42.667h-42.666V192h-46.294A63.792 63.792 0 0 0 64 149.333c-35.413 0-64 28.587-64 64s28.587 64 64 64a63.792 63.792 0 0 0 60.373-42.666h110.294m-170.667 0c-11.733 0-21.333-9.6-21.333-21.334S52.267 192 64 192s21.333 9.6 21.333 21.333-9.6 21.334-21.333 21.334m277.333-85.334C398.293 149.333 512 120.747 512 64V21.333H170.667V64c0 56.747 113.706 85.333 170.666 85.333m0 42.667C294.187 192 256 230.187 256 277.333s38.187 85.334 85.333 85.334 85.334-38.187 85.334-85.334S388.48 192 341.333 192z"/><glyph glyph-name="account-location" unicode="" horiz-adv-x="512" d="M384 106.667H128v19.2C128 168.533 213.333 192 256 192s128-23.467 128-66.133M256 334.933c32 0 57.6-25.6 57.6-57.6s-25.6-57.6-57.6-57.6-57.6 25.6-57.6 57.6 25.6 57.6 57.6 57.6m149.333 70.4H106.667A42.52 42.52 0 0 1 64 362.667V64c0-23.467 19.2-42.667 42.667-42.667H192l64-64 64 64h85.333C428.8 21.333 448 40.533 448 64v298.667c0 23.68-19.2 42.666-42.667 42.666z"/><glyph glyph-name="account-minus" unicode="" horiz-adv-x="512" d="M320 149.333c-56.96 0-170.667-28.373-170.667-85.333V21.333h341.334V64c0 56.96-113.707 85.333-170.667 85.333M21.333 234.667V192H192v42.667M320 192c47.147 0 85.333 38.187 85.333 85.333S367.147 362.667 320 362.667s-85.333-38.187-85.333-85.334S272.853 192 320 192z"/><glyph glyph-name="account-multiple" unicode="" horiz-adv-x="512" d="M341.333 170.667c-6.186 0-13.226 0-20.693-1.067 24.747-17.92 42.027-41.6 42.027-73.6V42.667h128V96c0 49.707-99.627 74.667-149.334 74.667m-170.666 0c-49.707 0-149.334-24.96-149.334-74.667V42.667H320V96c0 49.707-99.627 74.667-149.333 74.667m0 42.666c35.413 0 64 28.587 64 64s-28.587 64-64 64-64-28.586-64-64 28.586-64 64-64m170.666 0c35.414 0 64 28.587 64 64s-28.586 64-64 64-64-28.586-64-64 28.587-64 64-64z"/><glyph glyph-name="account-multiple-minus" unicode="" horiz-adv-x="512" d="M277.333 170.667c-42.666 0-128-21.334-128-64V64h256v42.667c0 42.666-85.333 64-128 64m141.227-3.414c17.707-15.36 29.44-35.413 29.44-60.586V64h64v42.667c0 32.853-50.56 53.333-93.44 60.586m-141.227 46.08c35.414 0 64 28.587 64 64s-28.586 64-64 64-64-28.586-64-64 28.587-64 64-64m106.667 0c35.413 0 64 28.587 64 64s-28.587 64-64 64a66.234 66.234 0 0 1-19.627-2.986c12.16-17.28 19.627-38.4 19.627-61.014 0-22.613-7.467-43.52-19.627-60.8 6.187-2.133 12.8-3.2 19.627-3.2m-213.333 21.334H0V192h170.667v42.667z"/><glyph glyph-name="account-multiple-outline" unicode="" horiz-adv-x="512" d="M352 309.333c23.467 0 42.667-19.2 42.667-42.666S375.467 224 352 224s-42.667 19.2-42.667 42.667 19.2 42.666 42.667 42.666M352 192c41.173 0 74.667 33.493 74.667 74.667S393.173 341.333 352 341.333s-74.667-33.493-74.667-74.666S310.827 192 352 192M160 309.333c23.467 0 42.667-19.2 42.667-42.666S183.467 224 160 224s-42.667 19.2-42.667 42.667 19.2 42.666 42.667 42.666M160 192c41.173 0 74.667 33.493 74.667 74.667S201.173 341.333 160 341.333s-74.667-33.493-74.667-74.666S118.827 192 160 192M458.667 74.667h-160v26.666c0 9.814-4.267 18.347-10.667 26.027 18.347 6.4 41.387 11.307 64 11.307 52.053 0 106.667-25.814 106.667-37.334m-192-26.666H53.333v26.666c0 11.52 54.614 37.334 106.667 37.334s106.667-25.814 106.667-37.334M352 170.667c-25.6 0-65.493-7.254-96-21.334-30.507 14.294-70.4 21.334-96 21.334-46.293 0-138.667-23.04-138.667-69.334V42.667h469.334v58.666c0 46.294-92.374 69.334-138.667 69.334z"/><glyph glyph-name="account-multiple-plus" unicode="" horiz-adv-x="512" d="M277.333 170.667c-42.666 0-128-21.334-128-64V64h256v42.667c0 42.666-85.333 64-128 64m141.227-3.414c17.707-15.36 29.44-35.413 29.44-60.586V64h64v42.667c0 32.853-50.56 53.333-93.44 60.586m-141.227 46.08c35.414 0 64 28.587 64 64s-28.586 64-64 64-64-28.586-64-64 28.587-64 64-64m106.667 0c35.413 0 64 28.587 64 64s-28.587 64-64 64a66.234 66.234 0 0 1-19.627-2.986c12.16-17.28 19.627-38.4 19.627-61.014 0-22.613-7.467-43.52-19.627-60.8 6.187-2.133 12.8-3.2 19.627-3.2m-213.333 21.334h-64v64H64v-64H0V192h64v-64h42.667v64h64v42.667z"/><glyph glyph-name="account-multiple-plus-outline" unicode="" horiz-adv-x="512" d="M288 341.333c-41.173 0-74.667-33.493-74.667-74.666S246.827 192 288 192c16 0 30.72 5.12 42.667 13.653 12.16-8.533 26.88-13.653 42.666-13.653C414.507 192 448 225.493 448 266.667s-33.493 74.666-74.667 74.666c-15.786 0-30.293-5.333-42.666-13.866C318.933 336.213 304 341.333 288 341.333m0-32c23.467 0 42.667-19.2 42.667-42.666S311.467 224 288 224s-42.667 19.2-42.667 42.667 19.2 42.666 42.667 42.666m85.333 0c23.467 0 42.667-19.2 42.667-42.666S396.8 224 373.333 224c-7.68 0-14.72 2.133-21.333 5.76 6.827 10.88 10.667 23.467 10.667 36.907 0 13.44-3.84 26.026-10.667 36.906 6.613 3.627 13.653 5.76 21.333 5.76M64 277.333v-64H0v-42.666h64v-64h42.667v64h64v42.666h-64v64H64m224-106.666c-46.293 0-138.667-23.04-138.667-69.334V42.667H512v58.666c0 46.294-92.373 69.334-138.667 69.334-11.733 0-26.666-1.707-42.666-4.694-15.36 2.987-30.507 4.694-42.667 4.694m0-32c52.053 0 106.667-25.814 106.667-37.334V74.667H181.333v26.666c0 11.52 54.614 37.334 106.667 37.334m119.04-3.414C446.507 128 480 110.293 480 101.333V74.667h-53.333v26.666c0 13.227-7.68 24.534-19.627 33.92z"/><glyph glyph-name="account-network" unicode="" horiz-adv-x="512" d="M277.333 106.667V64h21.334C310.4 64 320 54.4 320 42.667h149.333V0H320c0-11.733-9.6-21.333-21.333-21.333h-85.334C201.6-21.333 192-11.733 192 0H42.667v42.667H192C192 54.4 201.6 64 213.333 64h21.334v42.667h-128v32c0 41.173 66.773 74.666 149.333 74.666s149.333-33.493 149.333-74.666v-32h-128M256 405.333c41.173 0 74.667-33.493 74.667-74.666S297.173 256 256 256s-74.667 33.493-74.667 74.667 33.494 74.666 74.667 74.666z"/><glyph glyph-name="account-off" unicode="" horiz-adv-x="512" d="M256 362.667c47.147 0 85.333-38.187 85.333-85.334 0-41.6-29.866-76.373-69.333-83.84l-99.84 99.84c7.467 39.467 42.24 69.334 83.84 69.334m5.973-213.334l128-128 36.694-36.693-27.094-27.307-64 64H85.333V64c0 39.253 53.334 72.32 125.227 82.347L59.307 297.6 86.4 324.693l175.573-175.36M426.667 64V38.827l-103.68 103.68C384 129.493 426.667 99.2 426.667 64z"/><glyph glyph-name="account-outline" unicode="" horiz-adv-x="512" d="M256 170.667c-56.96 0-170.667-28.374-170.667-85.334v-64h341.334v64c0 56.96-113.707 85.334-170.667 85.334m0 192c-47.147 0-85.333-38.187-85.333-85.334S208.853 192 256 192s85.333 38.187 85.333 85.333-38.186 85.334-85.333 85.334m0-232.534c63.36 0 130.133-31.146 130.133-44.8V61.867H125.867v23.466c0 13.654 66.133 44.8 130.133 44.8m0 192c24.747 0 44.8-20.053 44.8-44.8 0-24.746-20.053-44.8-44.8-44.8-24.747 0-44.8 20.054-44.8 44.8 0 24.747 20.053 44.8 44.8 44.8z"/><glyph glyph-name="account-plus" unicode="" horiz-adv-x="512" d="M320 149.333c-56.96 0-170.667-28.373-170.667-85.333V21.333h341.334V64c0 56.96-113.707 85.333-170.667 85.333m-192 85.334v64H85.333v-64h-64V192h64v-64H128v64h64v42.667M320 192c47.147 0 85.333 38.187 85.333 85.333S367.147 362.667 320 362.667s-85.333-38.187-85.333-85.334S272.853 192 320 192z"/><glyph glyph-name="account-plus-outline" unicode="" horiz-adv-x="512" d="M320 362.667c-47.147 0-85.333-38.187-85.333-85.334S272.853 192 320 192s85.333 38.187 85.333 85.333-38.186 85.334-85.333 85.334m0-40.534c24.747 0 44.8-20.053 44.8-44.8 0-24.746-20.053-44.8-44.8-44.8-24.747 0-44.8 20.054-44.8 44.8 0 24.747 20.053 44.8 44.8 44.8M85.333 298.667v-64h-64V192h64v-64H128v64h64v42.667h-64v64H85.333m234.667-128c-56.96 0-170.667-28.374-170.667-85.334v-64h341.334v64c0 56.96-113.707 85.334-170.667 85.334m0-40.534c63.36 0 130.133-31.146 130.133-44.8V61.867H189.867v23.466c0 13.654 66.133 44.8 130.133 44.8z"/><glyph glyph-name="account-remove" unicode="" horiz-adv-x="512" d="M320 149.333c56.96 0 170.667-28.373 170.667-85.333V21.333H149.333V64c0 56.96 113.707 85.333 170.667 85.333M320 192c-47.147 0-85.333 38.187-85.333 85.333s38.186 85.334 85.333 85.334 85.333-38.187 85.333-85.334S367.147 192 320 192m-213.333 51.413l45.226 45.44 30.294-30.293-45.44-45.227 45.44-45.226-30.294-30.294-45.226 45.44-45.227-45.44-30.293 30.294 45.44 45.226-45.44 45.227 30.293 30.293 45.227-45.44z"/><glyph glyph-name="account-search" unicode="" horiz-adv-x="512" d="M202.667 384c76.586 0 138.666-62.08 138.666-138.667 0-34.346-12.586-65.92-33.493-90.24l5.973-5.76h16.854L437.333 42.667l-32-32-106.666 106.666v16.854l-5.76 5.973c-24.32-20.907-55.894-33.493-90.24-33.493C126.08 106.667 64 168.747 64 245.333S126.08 384 202.667 384m0-234.667c34.346 0 64 18.134 81.493 45.227-17.493 24.107-47.147 40.107-81.493 40.107-34.347 0-64-16-81.494-40.107 17.494-27.093 47.147-45.227 81.494-45.227m0 192c-20.694 0-37.334-16.64-37.334-37.333s16.64-37.333 37.334-37.333S240 283.307 240 304s-16.64 37.333-37.333 37.333z"/><glyph glyph-name="account-settings" unicode="" horiz-adv-x="512" d="M256 362.667c47.147 0 85.333-38.187 85.333-85.334S303.147 192 256 192s-85.333 38.187-85.333 85.333 38.186 85.334 85.333 85.334m0-213.334c94.293 0 170.667-38.186 170.667-85.333V21.333H85.333V64c0 47.147 76.374 85.333 170.667 85.333M149.333-21.333H192V-64h-42.667v42.667m85.334 0h42.666V-64h-42.666v42.667m85.333 0h42.667V-64H320v42.667z"/><glyph glyph-name="account-settings-variant" unicode="" horiz-adv-x="512" d="M192 362.667c-47.147 0-85.333-38.187-85.333-85.334S144.853 192 192 192s85.333 38.187 85.333 85.333-38.186 85.334-85.333 85.334m0-213.334c-56.96 0-170.667-28.373-170.667-85.333V21.333h236.374C256.64 28.373 256 35.413 256 42.667c0 32 10.667 64 30.08 89.6-32.64 11.093-68.907 17.066-94.08 17.066m192 0c-2.773 0-5.12-1.92-5.547-4.48l-4.053-28.16c-6.4-2.773-12.587-6.186-18.133-10.026l-26.454 10.666c-2.346 0-5.12 0-6.613-2.773l-21.333-36.907c-1.28-2.346-.854-5.12 1.28-6.826l22.613-17.494a89.449 89.449 0 0 1-.64-10.666c0-3.627.213-7.04.64-10.667l-22.613-17.493c-1.92-1.707-2.56-4.48-1.28-6.827L323.2-29.227C324.48-32 327.253-32 329.813-32l26.454 10.667c5.546-3.84 11.52-7.467 18.133-10.027l4.053-28.16c.427-2.56 2.56-4.48 5.547-4.48h42.667c2.346 0 4.693 1.92 5.12 4.48l4.053 28.16c6.4 2.773 12.16 6.187 17.92 10.027L480-32c2.773 0 5.547 0 7.04 2.773L508.373 7.68c1.28 2.347.64 5.12-1.28 6.827L484.267 32c.426 3.627.853 7.04.853 10.667 0 3.626-.213 7.04-.853 10.666l22.613 17.494c1.92 1.706 2.56 4.48 1.28 6.826l-21.333 36.907c-1.28 2.773-4.054 2.773-6.827 2.773l-26.24-10.666c-5.76 3.84-11.52 7.466-18.133 10.026l-4.054 28.16c-.213 2.56-2.56 4.48-4.906 4.48m-21.334-74.666c17.707 0 32-14.294 32-32s-14.293-32-32-32c-17.92 0-32 14.293-32 32s14.294 32 32 32z"/><glyph glyph-name="account-star" unicode="" horiz-adv-x="512" d="M320 149.333c-56.96 0-170.667-28.373-170.667-85.333V21.333h341.334V64c0 56.96-113.707 85.333-170.667 85.333M320 192c47.147 0 85.333 38.187 85.333 85.333S367.147 362.667 320 362.667s-85.333-38.187-85.333-85.334S272.853 192 320 192m-213.333-27.307l52.266-31.786-13.866 59.946L192 232.96l-61.653 5.333-23.68 56.32-24.107-56.32-61.227-5.333 46.507-40.107-14.507-59.946 53.334 31.786z"/><glyph glyph-name="account-switch" unicode="" horiz-adv-x="512" d="M341.333 256c49.707 0 149.334-24.96 149.334-74.667V128h-128v53.333c0 32-17.28 55.68-41.814 73.6l20.48 1.067m-170.666 0C220.373 256 320 231.04 320 181.333V128H21.333v53.333C21.333 231.04 120.96 256 170.667 256m0 42.667c-35.414 0-64 28.586-64 64s28.586 64 64 64 64-28.587 64-64-28.587-64-64-64m170.666 0c-35.413 0-64 28.586-64 64s28.587 64 64 64 64-28.587 64-64-28.586-64-64-64M192 90.667v-48h128v48l69.333-69.334L320-48V0H192v-48l-69.333 69.333L192 90.667z"/><glyph glyph-name="accusoft" unicode="" horiz-adv-x="512" d="M373.333 114.987c-3.626 5.12-170.026 217.813-175.573 224.64-5.76 7.04-4.053 9.173-2.987 10.453 1.92 1.92 4.907 1.92 17.067 1.92 7.04 0 78.08 0 85.547.64 15.36 0 17.92-1.28 19.413-1.92 1.707-.427 5.973-4.053 8.747-7.68 1.493-1.707 150.613-180.053 152.106-181.973 1.494-1.92 4.267-5.12 5.974-8.32 1.92-3.414 2.133-7.254-.64-8.747-1.707-1.067-84.054-34.987-86.4-35.84-1.92-1.493-6.827-2.773-10.24-2.347-2.347.854-7.254 2.56-13.014 9.174m84.694 4.053l5.973-1.067s19.84-3.84 21.76-4.266c2.133-.427 4.053-1.92 3.84-2.56-.213-1.707-1.067-2.56-2.56-3.414-1.28-1.066-90.667-56.106-92.373-56.96-1.494-.853-3.627-2.133-8.32-2.773-8.747-1.707-25.6 2.987-30.934 4.053C350.08 53.333 131.2 101.76 129.28 102.4c-1.92.64-3.2.853-3.413 2.56-.214 2.987 4.48 4.267 8.106 5.76 3.84 1.28 106.667 38.613 110.294 40.107 3.626 1.493 8.32 1.92 10.666 2.133 2.347.213 16.64-2.133 23.04-2.987 6.614-.64 24.96-3.84 24.96-3.84l41.814-54.4C352 83.413 356.693 80 362.667 79.36c3.2-.213 6.613.64 8.96 1.707 1.706.853 86.4 37.973 86.4 37.973m-239.36 133.12l36.48-46.72.853-1.707v-1.066c-.853-.854-65.493-60.16-65.92-60.8l-68.053-24.534s-1.92-1.066-2.987-1.706c-1.067-.64-2.347-1.92-1.707-5.12V89.813L33.28 63.147c-4.053-1.28-11.947-4.054-13.013-3.2-1.494 1.066.426 3.413 1.066 4.693 1.28 1.28 172.374 170.027 178.987 176.427 9.6 9.813 18.347 11.093 18.347 11.093"/><glyph glyph-name="adjust" unicode="" horiz-adv-x="512" d="M256 405.333C138.24 405.333 42.667 309.76 42.667 192S138.24-21.333 256-21.333 469.333 74.24 469.333 192 373.76 405.333 256 405.333m0-384C161.92 21.333 85.333 97.92 85.333 192S161.92 362.667 256 362.667 426.667 286.08 426.667 192 350.08 21.333 256 21.333M320 192c0-35.413-28.587-64-64-64s-64 28.587-64 64 28.587 64 64 64 64-28.587 64-64z"/><glyph glyph-name="air-conditioner" unicode="" horiz-adv-x="512" d="M140.587 433.92c49.92 38.613 104.106-8.533 116.266-81.92 9.174 0 18.134-2.56 26.24-7.253 11.094 12.8 20.907 30.293 17.067 49.92-8.96 45.866 42.453 82.986 91.307 19.626 38.613-49.92-8.534-104.106-82.134-116.266 0-9.174-2.346-18.347-7.253-26.454 12.8-10.88 30.293-20.693 49.92-16.853 45.44 8.96 82.773-42.24 19.413-91.307-49.92-38.613-104.106 8.534-116.266 81.92-9.174 0-18.134 2.774-26.027 7.467-11.093-12.8-21.12-30.507-17.28-50.133 8.96-45.654-42.453-82.987-91.307-19.627-38.826 50.133 8.534 104.32 82.134 116.267 0 9.173 2.773 18.133 7.466 26.24-12.8 10.88-30.293 20.906-50.133 17.066-45.44-8.96-82.773 42.24-19.413 91.307m-33.92-327.253h42.666C172.8 106.667 192 87.467 192 64V-64h-42.667v42.667h-42.666V-64H64V64c0 23.467 19.2 42.667 42.667 42.667m0-42.667V21.333h42.666V64h-42.666m169.173 42.667H320L257.493-64h-44.16l62.507 170.667m108.16 0h64V64h-64v-85.333h64V-64h-64c-23.467 0-42.667 19.2-42.667 42.667V64c0 23.467 19.2 42.667 42.667 42.667z"/><glyph glyph-name="airballoon" unicode="" horiz-adv-x="512" d="M234.667-42.667C211.2-42.667 192-23.467 192 0v42.667h128V0c0-23.467-19.2-42.667-42.667-42.667h-42.666M256 426.667c15.147 0 29.653-1.92 43.733-5.547 24.96-33.493 41.6-94.933 41.6-165.12 0-48.64-8.106-93.227-21.333-149.333C320 83.2 300.8 64 277.333 64h-42.666C211.2 64 192 83.2 192 106.667 178.773 162.773 170.667 207.36 170.667 256c0 70.187 16.64 131.627 41.6 165.12A174.256 174.256 0 0 0 256 426.667m170.667-149.334c0-67.84-39.467-168.96-96.854-196.48C350.08 119.68 362.667 195.627 362.667 256c0 60.373-12.587 114.987-32.854 153.813 57.387-27.52 96.854-64.64 96.854-132.48m-341.334 0c0 67.84 39.467 104.96 96.854 132.48-20.267-38.826-32.854-93.44-32.854-153.813s12.587-136.32 32.854-175.147c-57.387 27.52-96.854 128.64-96.854 196.48z"/><glyph glyph-name="airplane" unicode="" horiz-adv-x="512" d="M448 106.667v42.666L277.333 256v117.333c0 17.707-14.293 32-32 32s-32-14.293-32-32V256L42.667 149.333v-42.666L213.333 160V42.667l-42.666-32v-32L245.333 0 320-21.333v32l-42.667 32V160L448 106.667z"/><glyph glyph-name="airplane-landing" unicode="" horiz-adv-x="512" d="M53.333 42.667h405.334V0H53.333v42.667m153.174 122.24l92.8-24.747 113.28-30.293c17.066-4.48 34.56 5.546 39.253 22.613 4.48 16.853-5.547 34.56-22.613 39.253l-113.28 30.294-58.88 192.64-41.174 10.666v-176.64l-106.026 28.374-19.84 49.493-30.934 8.32V204.587l34.134-9.174 113.28-30.506z"/><glyph glyph-name="airplane-off" unicode="" horiz-adv-x="512" d="M67.2 335.573L173.44 229.12 45.867 149.333v-42.666L216.533 160V42.667l-42.666-32v-32L248.533 0 323.2-21.333v32l-42.667 32v79.573L402.56 0l27.307 27.093L94.293 362.667M280.533 256v117.333c0 17.707-14.293 32-32 32s-32-14.293-32-32v-78.506L383.36 128l67.84-21.333v42.666L280.533 256z"/><glyph glyph-name="airplane-takeoff" unicode="" horiz-adv-x="512" d="M53.333 42.667h405.334V0H53.333v42.667m417.494 199.68c-4.48 17.066-22.187 27.306-39.254 22.613l-113.28-30.293L170.667 371.84l-40.747-10.88L218.24 208l-106.027-28.373-42.026 32.853-30.934-8.32 38.827-67.413 16.427-28.374 34.133 8.96 113.28 30.507 92.8 24.747L448 202.667c17.28 5.12 27.307 22.613 22.827 39.68z"/><glyph glyph-name="airplay" unicode="" horiz-adv-x="512" d="M128-21.333h256l-128 128M448 384H64c-23.467 0-42.667-19.2-42.667-42.667v-256c0-23.466 19.2-42.666 42.667-42.666h85.333v42.666H64v256h384v-256h-85.333V42.667H448c23.467 0 42.667 19.2 42.667 42.666v256C490.667 364.8 471.467 384 448 384z"/><glyph glyph-name="airport" unicode="" horiz-adv-x="512" d="M319.36 321.707c-2.987 10.88-14.293 17.493-25.173 14.506L221.653 316.8l-94.72 87.893-26.24-7.04 56.747-97.92L89.387 281.6l-26.88 20.907-19.84-5.334 35.413-61.44 226.56 60.587c11.093 3.2 17.493 14.507 14.72 25.387M448 234.667L426.667 192H320l-21.333 42.667L320 256h42.667v42.667H384V256h42.667L448 234.667m21.333-213.334v-42.666H42.667v42.666H320v149.334h106.667V21.333h42.666z"/><glyph glyph-name="alarm" unicode="" horiz-adv-x="512" d="M256 21.333c-82.56 0-149.333 66.774-149.333 149.334S173.44 320 256 320s149.333-66.773 149.333-149.333S338.56 21.333 256 21.333m0 341.334c-106.027 0-192-85.974-192-192s85.973-192 192-192 192 85.973 192 192-85.973 192-192 192m10.667-85.334h-32v-128L336 88.533l16 26.24-85.333 50.56v112m-98.56 98.347L140.8 408.32l-98.133-82.133 27.52-32.64 97.92 82.133m301.226-49.707L371.2 408.32l-27.52-32.64 98.133-82.347 27.52 32.64z"/><glyph glyph-name="alarm-bell" unicode="" horiz-adv-x="512" d="M320 49.92v-71.253H106.667V49.92c65.92-38.187 147.413-38.187 213.333 0m149.333 312.747c0 23.466-19.2 42.666-42.666 42.666-6.614 0-13.014-1.493-18.774-4.48-6.4-3.2-11.946-7.893-16.213-13.653-13.653-19.2-8.96-45.867 10.453-59.52 7.04-4.907 15.787-7.68 24.534-7.68h5.12c36.906-94.507 8.96-201.813-69.12-266.667C355.84 48 348.8 42.667 341.333 37.973V0h21.334v26.88c66.986 47.787 106.666 125.44 106.666 207.787 0 32-5.973 64-17.706 93.44 11.093 8.106 17.706 20.906 17.706 34.56m-85.333-128C384 140.373 307.627 64 213.333 64S42.667 140.373 42.667 234.667s76.373 170.666 170.666 170.666S384 328.96 384 234.667z"/><glyph glyph-name="alarm-check" unicode="" horiz-adv-x="512" d="M224.853 138.027l-45.44 45.44-22.613-22.614 67.84-67.84 128 128-22.613 22.614-105.174-105.6M256 21.333c-82.56 0-149.333 66.774-149.333 149.334S173.44 320 256 320s149.333-66.773 149.333-149.333S338.56 21.333 256 21.333m0 341.334c-106.027 0-192-85.974-192-192s85.973-192 192-192 192 85.973 192 192-85.973 192-192 192m-87.893 13.013L140.8 408.32l-98.133-82.133 27.52-32.64 97.92 82.133m301.226-49.707L371.2 408.32l-27.52-32.64 98.133-82.347 27.52 32.64z"/><glyph glyph-name="alarm-light" unicode="" horiz-adv-x="512" d="M128 300.8l-45.44 45.227 30.08 30.08 45.227-45.44L128 300.8m149.333 125.867v-64h-42.666v64h42.666m152.107-80.64L384 300.8l-29.867 29.867 45.227 45.44 30.08-30.08M96 224v-42.667H32V224h64m320 0h64v-42.667h-64V224M128 21.333h256c23.467 0 42.667-19.2 42.667-42.666H85.333c0 23.466 19.2 42.666 42.667 42.666m128 320c70.613 0 128-57.386 128-128V42.667H128v170.666c0 70.614 57.387 128 128 128z"/><glyph glyph-name="alarm-multiple" unicode="" horiz-adv-x="512" d="M198.187 378.667L110.08 304.64l-24.747 29.44 88.32 74.027 24.534-29.44m271.146-44.8l-24.746-29.44-88.32 74.24 24.746 29.44 88.32-74.24m-192 28.8C371.627 362.667 448 286.293 448 192S371.627 21.333 277.333 21.333 106.667 97.707 106.667 192s76.373 170.667 170.666 170.667m0-42.667c-70.613 0-128-57.387-128-128s57.387-128 128-128 128 57.387 128 128-57.386 128-128 128M256 288h32v-96.64L356.693 160l-13.226-29.013L256 170.667V288M21.333 149.333c0 53.334 24.107 100.267 62.08 131.627C71.04 253.867 64 224 64 192l1.28-24.107-1.28-18.56c0-48.64 27.093-90.88 66.987-112.64C158.72 10.667 193.493-8.32 232.32-16.64c-13.013-2.987-26.453-4.693-40.32-4.693-94.293 0-170.667 76.373-170.667 170.666z"/><glyph glyph-name="alarm-off" unicode="" horiz-adv-x="512" d="M170.667 378.027L140.8 408.32l-18.347-15.147 30.294-30.506M351.36 55.68C325.547 34.347 292.267 21.333 256 21.333c-82.56 0-149.333 66.774-149.333 149.334 0 36.266 13.013 69.546 34.346 95.36m-78.72 133.12L35.2 371.84 64 343.467l-24.107-19.84 30.294-30.294 23.68 20.054 17.066-17.067C81.707 262.613 64 218.667 64 170.667c0-106.027 85.973-192 192-192 48 0 91.947 17.706 125.653 46.933l46.934-46.933L455.68 5.76 82.987 378.24l-20.694 20.907m407.04-73.174L371.2 408.32l-27.52-32.64 98.133-82.347 27.52 32.64M256 320c82.56 0 149.333-66.773 149.333-149.333 0-17.92-3.413-35.2-9.173-51.2l32.427-32.427C440.96 112.427 448 140.587 448 170.667c0 106.026-85.973 192-192 192-30.08 0-58.24-7.04-83.627-19.414l32.427-32.426c16 5.76 33.28 9.173 51.2 9.173z"/><glyph glyph-name="alarm-plus" unicode="" horiz-adv-x="512" d="M277.333 256h-42.666v-64h-64v-42.667h64v-64h42.666v64h64V192h-64M256 21.333c-82.56 0-149.333 66.774-149.333 149.334S173.44 320 256 320s149.333-66.773 149.333-149.333S338.56 21.333 256 21.333m0 341.334c-106.027 0-192-85.974-192-192s85.973-192 192-192 192 85.973 192 192-85.973 192-192 192m213.333-36.694L371.2 408.32l-27.52-32.64 98.133-82.347M168.107 375.68L140.8 408.32l-98.133-82.133 27.52-32.64 97.92 82.133z"/><glyph glyph-name="alarm-snooze" unicode="" horiz-adv-x="512" d="M168.107 375.68L140.8 408.32l-98.133-82.133 27.52-32.64 97.92 82.133m301.226-49.707L371.2 408.32l-27.52-32.64 98.133-82.347 27.52 32.64M256 362.667c-106.027 0-192-85.974-192-192s85.973-192 192-192 192 85.973 192 192-85.973 192-192 192m0-341.334c-82.56 0-149.333 66.774-149.333 149.334S173.44 320 256 320s149.333-66.773 149.333-149.333S338.56 21.333 256 21.333m-64 192h77.44l-77.44-89.6v-38.4h128V128h-77.44L320 217.6V256H192v-42.667z"/><glyph glyph-name="album" unicode="" horiz-adv-x="512" d="M256 213.333c-11.733 0-21.333-9.6-21.333-21.333s9.6-21.333 21.333-21.333 21.333 9.6 21.333 21.333-9.6 21.333-21.333 21.333M256 96c-53.333 0-96 42.667-96 96s42.667 96 96 96 96-42.667 96-96-42.667-96-96-96m0 309.333C138.24 405.333 42.667 309.76 42.667 192S138.24-21.333 256-21.333 469.333 74.24 469.333 192 373.76 405.333 256 405.333z"/><glyph glyph-name="alert" unicode="" horiz-adv-x="512" d="M277.333 149.333h-42.666v85.334h42.666m0-170.667h-42.666v42.667h42.666M21.333 0h469.334L256 405.333 21.333 0z"/><glyph glyph-name="alert-box" unicode="" horiz-adv-x="512" d="M106.667 384h298.666C428.8 384 448 364.8 448 341.333V42.667C448 19.2 428.8 0 405.333 0H106.667C83.2 0 64 19.2 64 42.667v298.666C64 364.8 83.2 384 106.667 384m170.666-213.333v128h-42.666v-128h42.666m0-85.334V128h-42.666V85.333h42.666z"/><glyph glyph-name="alert-circle" unicode="" horiz-adv-x="512" d="M277.333 170.667h-42.666v128h42.666m0-213.334h-42.666V128h42.666M256 405.333C138.24 405.333 42.667 309.76 42.667 192S138.24-21.333 256-21.333 469.333 74.24 469.333 192 373.76 405.333 256 405.333z"/><glyph glyph-name="alert-circle-outline" unicode="" horiz-adv-x="512" d="M234.667 128h42.666V85.333h-42.666V128m0 170.667h42.666v-128h-42.666v128M256 405.333c-117.973 0-213.333-96-213.333-213.333C42.667 74.24 138.24-21.333 256-21.333S469.333 74.24 469.333 192 373.76 405.333 256 405.333m0-384C161.707 21.333 85.333 97.707 85.333 192S161.707 362.667 256 362.667 426.667 286.293 426.667 192 350.293 21.333 256 21.333z"/><glyph glyph-name="alert-decagram" unicode="" horiz-adv-x="512" d="M490.667 192l-52.054 59.307 7.254 78.506-77.014 17.494-40.32 67.84L256 384l-72.533 31.147-40.32-67.84-77.014-17.28 7.254-78.507L21.333 192l52.054-59.307-7.254-78.72 77.014-17.493 40.32-67.84L256 0l72.533-31.147 40.32 67.84 77.014 17.494-7.254 78.506L490.667 192M277.333 85.333h-42.666V128h42.666V85.333m0 85.334h-42.666v128h42.666v-128z"/><glyph glyph-name="alert-octagon" unicode="" horiz-adv-x="512" d="M277.333 170.667h-42.666v128h42.666M256 78.933c-15.36 0-27.733 12.374-27.733 27.734 0 15.36 12.373 27.733 27.733 27.733 15.36 0 27.733-12.373 27.733-27.733 0-15.36-12.373-27.734-27.733-27.734M335.573 384H176.427L64 271.573V112.427L176.427 0h159.146L448 112.427v159.146L335.573 384z"/><glyph glyph-name="alert-octagram" unicode="" horiz-adv-x="512" d="M46.933 105.387L82.773 192l-35.84 86.613 86.614 35.84 35.84 86.614L256 365.227l86.613 35.84 35.84-86.614 86.614-35.84L429.227 192l35.84-86.613-86.614-35.84-35.84-86.614L256 18.773l-86.613-35.84-35.84 86.614-86.614 35.84m230.4-20.054V128h-42.666V85.333h42.666m0 85.334v128h-42.666v-128h42.666z"/><glyph glyph-name="alert-outline" unicode="" horiz-adv-x="512" d="M256 405.333L21.333 0h469.334M256 320L416.64 42.667H95.36m139.307 192v-85.334h42.666v85.334m-42.666-128V64h42.666v42.667"/><glyph glyph-name="alien" unicode="" horiz-adv-x="512" d="M256 384c106.027 0 192-76.373 192-170.667S320 0 256 0 64 119.04 64 213.333 149.973 384 256 384m-36.053-169.173c-21.76 34.986-60.587 50.133-86.614 33.92-26.026-16.214-29.44-57.814-7.68-92.8 21.974-34.987 60.8-50.134 86.827-33.92 26.027 16.64 29.227 57.813 7.467 92.8m72.106 0c-21.76-34.987-18.56-76.16 7.467-92.8 26.027-16.214 64.853-1.067 86.827 33.92 21.76 34.986 18.346 76.586-7.68 92.8-26.027 16.213-64.854 1.066-86.614-33.92M256 69.333c-42.667 0-53.333 16-53.333 16 0-.64 10.666-42.666 53.333-42.666s53.333 42.666 53.333 42.666-10.666-16-53.333-16z"/><glyph glyph-name="all-inclusive" unicode="" horiz-adv-x="512" d="M396.8 306.773c-30.72 0-59.733-11.946-80.427-32.64L166.4 141.013c-13.653-13.653-31.787-21.12-51.2-21.12-39.893 0-72.533 32.214-72.533 72.107s32.64 72.107 72.533 72.107c19.413 0 37.547-7.467 52.053-21.974L191.36 220.8 224 249.387l-27.307 23.68c-21.76 21.76-50.773 33.706-81.493 33.706C51.627 306.773 0 255.147 0 192S51.627 77.227 115.2 77.227c30.72 0 59.733 11.946 80.427 32.64L345.6 242.987c13.653 13.653 31.787 21.12 51.2 21.12 39.893 0 72.533-32.214 72.533-72.107s-32.64-72.107-72.533-72.107c-19.2 0-37.547 7.467-52.053 21.974L320 163.413l-32-28.586 27.307-23.894c21.76-21.546 50.56-33.493 81.493-33.493C460.373 77.44 512 128.853 512 192c0 64-51.627 114.773-115.2 114.773z"/><glyph glyph-name="allo" unicode="" horiz-adv-x="512" d="M469.333 192V0c0-10.667-5.12-17.493-14.933-20.48-9.6-2.987-17.067-.213-23.467 8.533L398.08 33.067c-40.107-36.054-87.467-54.4-142.08-54.4C197.333-21.333 147.2 0 105.6 41.6 64 83.2 42.667 133.333 42.667 192S64 300.8 105.6 342.4c41.6 41.6 91.733 62.933 150.4 62.933S364.8 384 406.4 342.4c41.6-41.6 62.933-91.733 62.933-150.4z"/><glyph glyph-name="alpha" unicode="" horiz-adv-x="512" d="M385.707 68.267c-9.814-2.774-18.56-4.267-26.24-4.267-25.6 0-42.88 18.773-51.627 56.533h-1.067C285.653 79.787 256 59.52 218.667 59.52c-27.947 0-50.347 10.453-67.2 31.573s-25.174 47.574-25.174 79.574c0 37.333 9.6 67.2 28.587 90.453 18.987 23.253 44.8 34.987 77.44 34.987 17.493 0 33.28-4.907 46.933-14.507 13.654-9.813 24.107-23.467 31.36-41.173h.854l15.146 51.2h54.614l-45.654-113.494c5.12-26.453 10.454-44.586 16.427-54.186 5.12-9.6 12.373-14.507 21.333-14.507 5.12 0 9.174.853 12.8 2.347l-.426-43.52m-90.88 111.786c-4.48 24.107-11.734 42.88-21.547 55.68-9.6 13.014-21.333 19.414-34.773 19.414-17.494 0-31.574-7.894-42.027-23.467-10.453-15.787-15.147-35.2-15.147-58.027 0-20.906 4.054-38.186 13.227-52.266 8.96-14.08 21.12-20.907 36.267-20.907 12.8 0 24.533 6.187 34.986 17.92 10.667 12.16 19.414 29.867 26.454 53.12l2.56 8.533z"/><glyph glyph-name="alphabetical" unicode="" horiz-adv-x="512" d="M128 213.333c23.467 0 42.667-19.2 42.667-42.666V85.333H85.333c-23.466 0-42.666 19.2-42.666 42.667v42.667c0 23.466 19.2 42.666 42.666 42.666H128m-42.667-42.666V128H128v42.667H85.333m341.334 0V128h42.666V85.333h-42.666C403.2 85.333 384 104.533 384 128v42.667c0 23.466 19.2 42.666 42.667 42.666h42.666v-42.666h-42.666M256 298.667v-85.334h42.667c23.466 0 42.666-19.2 42.666-42.666V128c0-23.467-19.2-42.667-42.666-42.667H256c-23.467 0-42.667 19.2-42.667 42.667v170.667H256M256 128h42.667v42.667H256V128z"/><glyph glyph-name="altimeter" unicode="" horiz-adv-x="512" d="M149.333 384v-42.667h213.334V384H149.333M192 298.667V256h128v42.667H192m-149.333-20.48V105.813L128.64 192l-85.973 86.187m427.306 0L384 192l85.973-86.187v172.374m-320.64-64.854v-42.666h213.334v42.666H149.333M192 128V85.333h128V128H192m-42.667-85.333V0h213.334v42.667H149.333z"/><glyph glyph-name="amazon" unicode="" horiz-adv-x="512" d="M339.84 83.413c-3.84-3.413-9.173-3.626-13.44-1.28-18.987 15.787-22.4 23.04-32.853 38.187-31.36-32-53.547-41.6-94.294-41.6-48 0-85.546 29.653-85.546 88.96 0 46.507 24.96 77.653 61.013 93.44 31.147 13.653 74.453 16.213 107.52 19.84V288c0 14.08 1.067 30.08-7.04 41.813-6.827 10.454-20.267 14.934-32 14.934-21.76 0-41.173-11.307-45.867-34.347-1.066-5.12-5.333-10.24-10.026-10.453l-55.467 5.973c-4.693 1.067-9.813 4.693-8.533 11.947 12.8 67.2 73.6 87.466 128 87.466 27.733 0 64-7.466 85.973-28.373 27.733-26.027 25.387-60.8 25.387-98.56v-88.96c0-26.667 10.666-38.613 21.333-52.907 3.627-5.333 4.48-11.52 0-15.146l-43.947-37.974h-.213m-57.6 139.307v11.947c-41.387 0-85.12-8.32-85.12-56.96 0-24.747 13.013-41.6 34.773-41.6 16.214 0 30.507 10.026 39.68 26.026 11.094 19.84 10.667 38.4 10.667 60.587M430.08 31.147C384-2.987 316.16-21.333 258.133-21.333c-81.28 0-154.666 30.08-210.133 80.213-4.267 3.84-.427 9.173 5.333 6.187C112.64 30.293 186.667 9.387 263.04 9.387c51.413 0 108.16 10.666 160.213 32.64 7.894 3.413 14.08-5.12 6.827-10.88m19.413 22.186c-5.973 7.68-39.466 3.627-54.826 1.707-4.054-.427-4.694 3.413-.64 6.4 26.453 18.773 70.186 13.227 75.306 7.04 5.12-6.4-1.493-50.133-26.453-70.827-3.84-3.413-7.467-1.493-5.547 2.347 5.547 14.293 18.134 45.653 12.16 53.333z"/><glyph glyph-name="amazon-clouddrive" unicode="" horiz-adv-x="512" d="M105.387 210.773c6.186 0 11.946-.853 17.493-2.346.213 45.653 37.12 82.773 82.987 82.773 34.56 0 64.426-21.333 76.586-51.627 12.587 16.427 32 26.454 53.76 26.454 37.12 0 67.84-30.294 67.84-67.84 0-5.12-.64-10.454-1.706-15.36 5.12 1.92 10.88 2.986 16.853 2.986 27.733 0 50.133-22.613 50.133-50.346 0-27.734-22.4-50.134-50.133-50.134H105.387c-34.56 0-62.72 28.16-62.72 62.72 0 34.774 28.16 62.72 62.72 62.72z"/><glyph glyph-name="ambulance" unicode="" horiz-adv-x="512" d="M384 53.333c17.707 0 32 14.294 32 32s-14.293 32-32 32-32-14.293-32-32 14.293-32 32-32m32 192h-53.333V192h95.146L416 245.333m-288-192c17.707 0 32 14.294 32 32s-14.293 32-32 32-32-14.293-32-32 14.293-32 32-32m298.667 224l64-85.333V85.333H448c0-35.413-28.587-64-64-64s-64 28.587-64 64H192c0-35.413-28.587-64-64-64s-64 28.587-64 64H21.333V320A42.52 42.52 0 0 0 64 362.667h298.667v-85.334h64m-256 42.667v-64h-64v-42.667h64v-64h42.666v64h64V256h-64v64h-42.666z"/><glyph glyph-name="amplifier" unicode="" horiz-adv-x="512" d="M213.333 405.333h85.334c11.733 0 21.333-9.6 21.333-21.333h128V0h-42.667c0-11.733-9.6-21.333-21.333-21.333S362.667-11.733 362.667 0H149.333c0-11.733-9.6-21.333-21.333-21.333S106.667-11.733 106.667 0H64v384h128c0 11.733 9.6 21.333 21.333 21.333m-106.666-64V256h298.666v85.333H106.667M149.333 320c11.734 0 21.334-9.6 21.334-21.333s-9.6-21.334-21.334-21.334S128 286.933 128 298.667 137.6 320 149.333 320M256 320h42.667v-21.333H256V320m64 0h21.333v-42.667H320V320m42.667 0H384v-42.667h-21.333V320M256 213.333c-47.147 0-85.333-38.186-85.333-85.333S208.853 42.667 256 42.667 341.333 80.853 341.333 128 303.147 213.333 256 213.333M213.333 320c11.734 0 21.334-9.6 21.334-21.333s-9.6-21.334-21.334-21.334S192 286.933 192 298.667 201.6 320 213.333 320z"/><glyph glyph-name="anchor" unicode="" horiz-adv-x="512" d="M256 405.333c-35.413 0-64-28.586-64-64 0-27.093 17.067-51.2 42.667-60.373v-46.293h-64V192h64V44.373c-39.254 6.187-74.027 28.8-95.36 62.294h31.36v42.666H64V42.667h42.667v36.266C140.373 29.653 196.267 0 256 0s115.627 29.653 149.333 78.72V42.667H448v106.666H341.333v-42.666h31.147c-21.333-33.28-56.107-56.107-95.147-62.294V192h64v42.667h-64v46.506c25.6 8.96 42.667 33.067 42.667 60.16 0 35.414-28.587 64-64 64m0-42.666c11.733 0 21.333-9.6 21.333-21.334S267.733 320 256 320s-21.333 9.6-21.333 21.333 9.6 21.334 21.333 21.334z"/><glyph glyph-name="android" unicode="" horiz-adv-x="512" d="M320 341.333h-21.333v21.334H320m-106.667-21.334H192v21.334h21.333m117.974 39.253l27.946 27.947c4.054 4.053 4.054 10.88 0 15.146-4.266 4.054-11.093 4.054-15.146 0l-31.574-31.573c-17.066 8.32-36.266 13.227-56.533 13.227-20.48 0-39.68-4.907-56.747-13.44l-31.786 31.786c-4.054 4.054-10.88 4.054-14.934 0-4.266-4.266-4.266-11.093 0-15.146l27.947-27.947C148.693 378.453 128 341.333 128 298.667h256c0 42.666-21.333 80-52.693 103.253m106.026-124.587c-17.706 0-32-14.293-32-32V96c0-17.707 14.294-32 32-32s32 14.293 32 32v149.333c0 17.707-14.293 32-32 32m-362.666 0c-17.707 0-32-14.293-32-32V96c0-17.707 14.293-32 32-32s32 14.293 32 32v149.333c0 17.707-14.294 32-32 32M128 64c0-11.733 9.6-21.333 21.333-21.333h21.334V-32c0-17.707 14.293-32 32-32s32 14.293 32 32v74.667h42.666V-32c0-17.707 14.294-32 32-32s32 14.293 32 32v74.667h21.334C374.4 42.667 384 52.267 384 64v213.333H128V64z"/><glyph glyph-name="android-debug-bridge" unicode="" horiz-adv-x="512" d="M320 256c-11.733 0-21.333 9.6-21.333 21.333s9.6 21.334 21.333 21.334 21.333-9.6 21.333-21.334S331.733 256 320 256m-128 0c-11.733 0-21.333 9.6-21.333 21.333s9.6 21.334 21.333 21.334 21.333-9.6 21.333-21.334S203.733 256 192 256m151.893 98.773l44.8 44.8L371.2 417.28 321.92 368c-19.84 10.027-42.24 16-65.92 16-23.893 0-46.08-5.973-65.92-16l-49.28 49.28-17.493-17.707 44.8-44.8c-37.12-27.093-61.44-70.613-61.44-120.106v-21.334h298.666v21.334c0 49.493-24.32 93.013-61.44 120.106M106.667 106.667C106.667 24.32 173.44-42.667 256-42.667s149.333 66.774 149.333 149.334V192H106.667v-85.333z"/><glyph glyph-name="android-head" unicode="" horiz-adv-x="512" d="M170.667 202.667C155.947 202.667 144 190.72 144 176s11.947-26.667 26.667-26.667S197.333 161.28 197.333 176s-11.946 26.667-26.666 26.667m170.666 0c-14.72 0-26.666-11.947-26.666-26.667s11.946-26.667 26.666-26.667S368 161.28 368 176s-11.947 26.667-26.667 26.667m-85.333 96c32 0 61.867-7.04 89.173-19.414l46.08 46.08c8.32 8.32 21.76 8.32 30.08 0 8.32-8.32 8.32-21.76 0-30.08l-38.4-38.4c52.48-39.04 86.4-101.333 86.4-171.52H42.667c0 70.187 33.92 132.48 86.4 171.52l-38.4 38.4c-8.32 8.32-8.32 21.76 0 30.08 8.32 8.32 21.76 8.32 30.08 0l46.08-46.08C194.133 291.627 224 298.667 256 298.667z"/><glyph glyph-name="android-studio" unicode="" horiz-adv-x="512" d="M234.667 405.333h42.666v-42.666H288c17.707 0 32-14.294 32-32V256l-9.387-9.387 34.987-60.586c23.68 23.253 38.4 55.466 38.4 91.306h42.667c0-51.626-22.827-97.92-59.094-129.28L434.56 32l2.773-47.36-39.893 26.027-65.493 113.706c-22.614-11.306-48.64-17.706-75.947-17.706-27.307 0-53.333 6.4-75.947 17.706L114.56 10.667 74.667-15.36 77.44 32l123.947 214.613L192 256v74.667c0 17.706 14.293 32 32 32h10.667v42.666m-33.28-243.84c16.64-7.893 35.2-12.16 54.613-12.16 19.413 0 37.973 4.267 54.613 12.16l-31.146 53.974h-.214c-13.226-12.8-33.28-12.8-46.506 0h-.214l-31.146-53.974M256 320c-11.733 0-21.333-9.6-21.333-21.333s9.6-21.334 21.333-21.334 21.333 9.6 21.333 21.334S267.733 320 256 320z"/><glyph glyph-name="angular" unicode="" horiz-adv-x="512" d="M256 394.667l188.587-67.2L416 77.867 256-10.667 96 77.867l-28.587 249.6L256 394.667m0-44.8L138.027 85.333h43.946l23.68 59.307H305.92l23.68-59.307h43.733L256 349.867m34.56-168.534h-68.907L256 263.893l34.56-82.56z"/><glyph glyph-name="angularjs" unicode="" horiz-adv-x="512" d="M256 394.667l188.587-67.2L416 77.867 256-10.667 96 77.867l-28.587 249.6L256 394.667M256 352l-149.333-53.333 23.04-196.694L256 32l126.293 69.973 23.04 196.694L256 352m0-26.027l97.707-219.306h-36.48l-19.84 48.64h-83.2l-19.627-48.64h-36.48L256 325.973M284.587 185.6L256 254.507 227.413 185.6h57.174z"/><glyph glyph-name="animation" unicode="" horiz-adv-x="512" d="M85.333 405.333a42.52 42.52 0 0 1-42.666-42.666V149.333h42.666v213.334h213.334v42.666H85.333M170.667 320A42.52 42.52 0 0 1 128 277.333V64h42.667v213.333H384V320H170.667M256 234.667A42.52 42.52 0 0 1 213.333 192V21.333A42.52 42.52 0 0 1 256-21.333h170.667a42.52 42.52 0 0 1 42.666 42.666V192a42.52 42.52 0 0 1-42.666 42.667H256z"/><glyph glyph-name="anvil" unicode="" horiz-adv-x="512" d="M192 341.333V234.667c85.973-52.694-11.947-106.027-64-128v-64h320v64C311.253 164.907 372.693 256 469.333 277.333v64H192M42.667 320c17.28-45.44 51.626-74.667 106.666-85.333V320H42.667z"/><glyph glyph-name="apple" unicode="" horiz-adv-x="512" d="M399.147 32c-17.707-26.453-36.48-52.267-65.067-52.693-28.587-.64-37.76 16.853-70.187 16.853-32.64 0-42.666-16.427-69.76-17.493-27.946-1.067-49.066 28.16-66.986 53.973-36.48 52.693-64.427 149.76-26.88 215.04 18.56 32.427 51.84 52.907 87.893 53.547 27.307.426 53.333-18.56 70.187-18.56 16.64 0 48.213 22.826 81.28 19.413 13.866-.64 52.693-5.547 77.653-42.24-1.92-1.28-46.293-27.307-45.867-81.28.64-64.427 56.534-85.973 57.174-86.187-.64-1.493-8.96-30.72-29.44-60.373M277.333 373.333c15.574 17.707 41.387 31.147 62.72 32 2.774-24.96-7.253-50.133-22.186-68.053-14.72-18.133-39.04-32.213-62.934-30.293-3.2 24.533 8.747 50.133 22.4 66.346z"/><glyph glyph-name="apple-finder" unicode="" horiz-adv-x="512" d="M85.333 362.667h168.32c12.16 23.253 26.454 45.226 43.52 64l23.68-23.68c-9.173-12.587-17.28-26.24-24.533-40.32h130.347c23.466 0 42.666-19.2 42.666-42.667V42.667C469.333 19.2 450.133 0 426.667 0h-108.16l7.04-26.24-39.04-15.36L275.84 0H85.333C61.867 0 42.667 19.2 42.667 42.667V320c0 23.467 19.2 42.667 42.666 42.667m0-42.667V42.667H267.52c-.853 7.04-2.133 14.08-2.987 21.333H256c-58.667 0-111.36 10.667-146.56 26.453l19.413 34.987c20.48-11.093 66.774-18.773 127.147-18.773h5.12a355.327 355.327 0 0 0 .64 42.666H192s8.533 85.974 42.667 170.667H85.333M426.667 42.667V320H277.333c-19.2-47.36-30.293-95.147-36.266-128h61.226c-3.626-27.307-4.266-55.893-2.346-83.84 38.613 2.773 68.053 9.173 83.2 17.28l19.413-34.987c-25.173-11.52-59.093-20.053-97.707-24.106 1.28-8.107 2.56-16 4.48-23.68h117.334M128 277.333h42.667v-64H128v64m213.333 0H384v-64h-42.667v64z"/><glyph glyph-name="apple-ios" unicode="" horiz-adv-x="512" d="M426.667 256v42.667h-85.334c-23.466 0-42.666-19.2-42.666-42.667v-42.667c0-23.466 19.2-42.666 42.666-42.666H384V128h-85.333V85.333H384c23.467 0 42.667 19.2 42.667 42.667v42.667c0 23.466-19.2 42.666-42.667 42.666h-42.667V256M234.667 128H192v128h42.667m0 42.667H192c-23.467 0-42.667-19.2-42.667-42.667V128c0-23.467 19.2-42.667 42.667-42.667h42.667c23.466 0 42.666 19.2 42.666 42.667v128c0 23.467-19.2 42.667-42.666 42.667M85.333 85.333H128v128H85.333m0 42.667H128v42.667H85.333V256z"/><glyph glyph-name="apple-keyboard-caps" unicode="" horiz-adv-x="512" d="M320 149.333v128h46.293L256 387.627 145.707 277.333H192v-128h128M256 448l213.333-213.333H362.667v-128H149.333v128H42.667L256 448M149.333 64h213.334V-64H149.333V64M320 21.333H192v-42.666h128v42.666z"/><glyph glyph-name="apple-keyboard-command" unicode="" horiz-adv-x="512" d="M128 405.333c47.147 0 85.333-38.186 85.333-85.333v-42.667h85.334V320c0 47.147 38.186 85.333 85.333 85.333s85.333-38.186 85.333-85.333-38.186-85.333-85.333-85.333h-42.667v-85.334H384c47.147 0 85.333-38.186 85.333-85.333S431.147-21.333 384-21.333 298.667 16.853 298.667 64v42.667h-85.334V64c0-47.147-38.186-85.333-85.333-85.333S42.667 16.853 42.667 64 80.853 149.333 128 149.333h42.667v85.334H128c-47.147 0-85.333 38.186-85.333 85.333S80.853 405.333 128 405.333M341.333 64c0-23.467 19.2-42.667 42.667-42.667s42.667 19.2 42.667 42.667-19.2 42.667-42.667 42.667h-42.667V64m-42.666 170.667h-85.334v-85.334h85.334v85.334M128 106.667c-23.467 0-42.667-19.2-42.667-42.667s19.2-42.667 42.667-42.667 42.667 19.2 42.667 42.667v42.667H128M170.667 320c0 23.467-19.2 42.667-42.667 42.667S85.333 343.467 85.333 320s19.2-42.667 42.667-42.667h42.667V320M384 277.333c23.467 0 42.667 19.2 42.667 42.667s-19.2 42.667-42.667 42.667-42.667-19.2-42.667-42.667v-42.667H384z"/><glyph glyph-name="apple-keyboard-control" unicode="" horiz-adv-x="512" d="M421.973 196.693l-30.293-30.08L256 302.293l-135.68-135.68-30.293 30.08L256 362.667l165.973-165.974z"/><glyph glyph-name="apple-keyboard-option" unicode="" horiz-adv-x="512" d="M64 362.667h130.347L344.533 64H448V21.333H317.44L167.253 320H64v42.667m234.667 0H448V320H298.667v42.667z"/><glyph glyph-name="apple-keyboard-shift" unicode="" horiz-adv-x="512" d="M320 64v128h46.293L256 302.293 145.707 192H192V64h128m-64 298.667l213.333-213.334H362.667v-128H149.333v128H42.667L256 362.667z"/><glyph glyph-name="apple-mobileme" unicode="" horiz-adv-x="512" d="M469.333 127.147c0-46.72-37.546-84.48-83.84-84.48H126.507c-46.294 0-83.84 37.76-83.84 84.48 0 42.026 30.506 76.8 70.613 83.2-.64 2.986-.853 5.973-.853 9.173 0 29.44 23.68 53.547 53.12 53.547 13.013 0 25.173-4.907 34.346-12.8 16.427 37.333 37.547 71.68 96.854 71.68 71.893 0 105.813-55.894 105.813-114.987 0-2.347 0-4.907-.213-7.253 38.186-7.894 66.986-41.814 66.986-82.56z"/><glyph glyph-name="apple-safari" unicode="" horiz-adv-x="512" d="M256 405.333c117.76 0 213.333-95.573 213.333-213.333S373.76-21.333 256-21.333 42.667 74.24 42.667 192 138.24 405.333 256 405.333m0-42.666c-94.293 0-170.667-76.374-170.667-170.667 0-44.587 17.067-85.333 45.014-115.413l80.426 160.64 160.64 80.426C341.333 345.6 300.587 362.667 256 362.667m0-341.334c94.293 0 170.667 76.374 170.667 170.667 0 44.587-17.067 85.333-45.014 115.413l-80.426-160.64-160.64-80.426C170.667 38.4 211.413 21.333 256 21.333M256 192l-16.427 16.427-32.64-65.494 65.494 32.64L256 192m0-117.333h21.333v-32H256v32m82.773 34.346l15.147 15.147 22.613-22.613L361.387 86.4l-22.614 22.613M373.333 192v21.333h32V192h-32M256 309.333h-21.333v32H256v-32m-82.773-34.346L158.08 259.84l-22.613 22.613 15.146 15.147 22.614-22.613M138.667 192v-21.333h-32V192h32z"/><glyph glyph-name="application" unicode="" horiz-adv-x="512" d="M405.333 362.667c23.68 0 42.667-19.2 42.667-42.667V64c0-23.467-19.2-42.667-42.667-42.667H106.667C82.987 21.333 64 40.533 64 64v256c0 23.467 19.2 42.667 42.667 42.667h298.666m0-298.667v213.333H106.667V64h298.666z"/><glyph glyph-name="approval" unicode="" horiz-adv-x="512" d="M490.667 192l-52.054 59.307 7.254 78.506-77.014 17.494-40.32 67.84L256 384l-72.533 31.147-40.32-67.84-77.014-17.28 7.254-78.507L21.333 192l52.054-59.307-7.254-78.72 77.014-17.493 40.32-67.84L256 0l72.533-31.147 40.32 67.84 77.014 17.494-7.254 78.506L490.667 192M213.333 85.333L128 170.667l30.08 30.08 55.253-55.04L353.92 286.293 384 256 213.333 85.333z"/><glyph glyph-name="apps" unicode="" horiz-adv-x="512" d="M341.333 21.333h85.334v85.334h-85.334m0 42.666h85.334v85.334h-85.334m-128 42.666h85.334v85.334h-85.334m128-85.334h85.334v85.334h-85.334m-128-213.334h85.334v85.334h-85.334m-128-85.334h85.334v85.334H85.333m0-213.334h85.334v85.334H85.333m128-85.334h85.334v85.334h-85.334m-128 170.666h85.334v85.334H85.333v-85.334z"/><glyph glyph-name="archive" unicode="" horiz-adv-x="512" d="M64 384h384v-85.333H64V384m21.333-106.667h341.334V0H85.333v277.333m117.334-64c-5.974 0-10.667-4.693-10.667-10.666v-32h128v32c0 5.973-4.693 10.666-10.667 10.666H202.667z"/><glyph glyph-name="arrange-bring-forward" unicode="" horiz-adv-x="512" d="M42.667 405.333h298.666V106.667H42.667v298.666m426.666-128V-21.333H170.667V64h42.666V21.333h213.334v213.334H384v42.666h85.333z"/><glyph glyph-name="arrange-bring-to-front" unicode="" horiz-adv-x="512" d="M42.667 405.333h192V320H192v42.667H85.333V256H128v-42.667H42.667v192m426.666-234.666v-192h-192V64H320V21.333h106.667V128H384v42.667h85.333M170.667 277.333h170.666V106.667H170.667v170.666z"/><glyph glyph-name="arrange-send-backward" unicode="" horiz-adv-x="512" d="M42.667 405.333h298.666V106.667H42.667v298.666m426.666-128V-21.333H170.667V64H384v213.333h85.333m-384 85.334V149.333h213.334v213.334H85.333z"/><glyph glyph-name="arrange-send-to-back" unicode="" horiz-adv-x="512" d="M42.667 405.333h192v-192h-192v192M192 362.667H85.333V256H192v106.667m277.333-192v-192h-192v192h192M320 21.333h106.667V128H320V21.333m21.333 256v-64h-64v64h64M234.667 106.667h-64v64h64v-64z"/><glyph glyph-name="arrow-all" unicode="" horiz-adv-x="512" d="M277.333 213.333H384l-32 32 30.293 30.294L465.92 192l-83.627-83.627L352 138.667l32 32H277.333V64l32 32 30.294-30.293L256-17.92l-83.627 83.627L202.667 96l32-32v106.667H128l32-32-30.293-30.294L46.08 192l83.627 83.627L160 245.333l-32-32h106.667V320l-32-32-30.294 30.293L256 401.92l83.627-83.627L309.333 288l-32 32V213.333z"/><glyph glyph-name="arrow-bottom-left" unicode="" horiz-adv-x="512" d="M405.333 311.253l-30.08 30.08-225.92-225.92V256h-42.666V42.667H320v42.666H179.413l225.92 225.92z"/><glyph glyph-name="arrow-bottom-right" unicode="" horiz-adv-x="512" d="M106.667 311.253l30.08 30.08 225.92-225.92V256h42.666V42.667H192v42.666h140.587l-225.92 225.92z"/><glyph glyph-name="arrow-collapse" unicode="" horiz-adv-x="512" d="M416 382.08l-96-96v76.587h-42.667V213.333h149.334V256H350.08l96 96L416 382.08M85.333 170.667V128h76.587l-96-96L96 1.92l96 96V21.333h42.667v149.334H85.333z"/><glyph glyph-name="arrow-collapse-all" unicode="" horiz-adv-x="512" d="M416 382.08L446.08 352l-96-96h76.587v-42.667H277.333v149.334H320V286.08l96 96M446.08 32L416 1.92l-96 96V21.333h-42.667v149.334h149.334V128H350.08l96-96M96 382.08l96-96v76.587h42.667V213.333H85.333V256h76.587l-96 96L96 382.08M65.92 32l96 96H85.333v42.667h149.334V21.333H192V97.92l-96-96L65.92 32z"/><glyph glyph-name="arrow-collapse-down" unicode="" horiz-adv-x="512" d="M424.96 190.293L256 21.333 87.04 190.293l30.293 30.08L234.667 103.04v302.293h42.666V103.04l117.334 117.547 30.293-30.294M256 21.333H42.667v-42.666h426.666v42.666H256z"/><glyph glyph-name="arrow-collapse-horizontal" unicode="" horiz-adv-x="512" d="M266.667 32v341.973h43.306V32h-43.306m-64 0v341.973h43.306V32h-43.306M96 288l85.973-85.333L96 117.973v64H32V224h64v64m320-170.027l-85.333 84.694L416 288v-64h64v-42.027h-64v-64z"/><glyph glyph-name="arrow-collapse-left" unicode="" horiz-adv-x="512" d="M254.293 23.04L85.333 192l168.96 168.96 30.08-30.293L167.04 213.333h302.293v-42.666H167.04L284.587 53.333 254.293 23.04M85.333 192v213.333H42.667V-21.333h42.666V192z"/><glyph glyph-name="arrow-collapse-right" unicode="" horiz-adv-x="512" d="M257.707 360.96L426.667 192 257.707 23.04l-30.08 30.293L344.96 170.667H42.667v42.666H344.96L227.627 330.667l30.08 30.293M426.667 192V-21.333h42.666v426.666h-42.666V192z"/><glyph glyph-name="arrow-collapse-up" unicode="" horiz-adv-x="512" d="M87.04 193.707L256 362.667l168.96-168.96-30.293-30.08L277.333 280.96V-21.333h-42.666V280.96L117.333 163.627l-30.293 30.08M256 362.667h213.333v42.666H42.667v-42.666H256z"/><glyph glyph-name="arrow-collapse-vertical" unicode="" horiz-adv-x="512" d="M85.333 192h341.334v-42.667H85.333V192m0 64h341.334v-42.667H85.333V256m256 106.667L256 277.333l-85.333 85.334h64v64h42.666v-64h64m-170.666-320L256 128l85.333-85.333h-64v-64h-42.666v64h-64z"/><glyph glyph-name="arrow-down" unicode="" horiz-adv-x="512" d="M234.667 362.667h42.666v-256L394.667 224l30.293-30.293L256 24.747 87.04 193.707 117.333 224l117.334-117.333v256z"/><glyph glyph-name="arrow-down-bold" unicode="" horiz-adv-x="512" d="M192 362.667h128V192h103.253L256 24.747 88.747 192H192v170.667z"/><glyph glyph-name="arrow-down-bold-box" unicode="" horiz-adv-x="512" d="M106.667 384h298.666C428.8 384 448 364.8 448 341.333V42.667C448 19.2 428.8 0 405.333 0H106.667C83.2 0 64 19.2 64 42.667v298.666C64 364.8 83.2 384 106.667 384M256 85.333L362.667 192h-64v85.333h-85.334V192h-64L256 85.333z"/><glyph glyph-name="arrow-down-bold-box-outline" unicode="" horiz-adv-x="512" d="M256 85.333L149.333 192h64v85.333h85.334V192h64L256 85.333M106.667 384h298.666C428.8 384 448 364.8 448 341.333V42.667C448 19.2 428.8 0 405.333 0H106.667C83.2 0 64 19.2 64 42.667v298.666C64 364.8 83.2 384 106.667 384m0-42.667V42.667h298.666v298.666H106.667z"/><glyph glyph-name="arrow-down-bold-circle" unicode="" horiz-adv-x="512" d="M256 405.333c117.76 0 213.333-95.573 213.333-213.333S373.76-21.333 256-21.333 42.667 74.24 42.667 192 138.24 405.333 256 405.333m0-320L362.667 192h-64v85.333h-85.334V192h-64L256 85.333z"/><glyph glyph-name="arrow-down-bold-circle-outline" unicode="" horiz-adv-x="512" d="M256 85.333L149.333 192h64v85.333h85.334V192h64L256 85.333m0 320c117.76 0 213.333-95.573 213.333-213.333S373.76-21.333 256-21.333 42.667 74.24 42.667 192 138.24 405.333 256 405.333m0-42.666c-94.293 0-170.667-76.374-170.667-170.667S161.707 21.333 256 21.333 426.667 97.707 426.667 192 350.293 362.667 256 362.667z"/><glyph glyph-name="arrow-down-bold-hexagon-outline" unicode="" horiz-adv-x="512" d="M256 85.333L149.333 192h64v85.333h85.334V192h64L256 85.333M448 96c0-8.107-4.48-15.147-11.307-18.773L268.16-17.493c-3.413-2.56-7.68-3.84-12.16-3.84s-8.747 1.28-12.16 3.84L75.307 77.227C68.48 80.853 64 87.893 64 96v192c0 8.107 4.48 15.147 11.307 18.773l168.533 94.72c3.413 2.56 7.68 3.84 12.16 3.84s8.747-1.28 12.16-3.84l168.533-94.72C443.52 303.147 448 296.107 448 288V96M256 359.467l-149.333-84.054V108.587L256 24.533l149.333 84.054v166.826L256 359.467z"/><glyph glyph-name="arrow-down-box" unicode="" horiz-adv-x="512" d="M64 341.333C64 364.8 83.2 384 106.667 384h298.666C428.8 384 448 364.8 448 341.333V42.667C448 19.2 428.8 0 405.333 0H106.667C82.987 0 64 19.2 64 42.667v298.666M234.667 320V138.667L160 213.333l-30.293-30.293L256 56.747 382.293 183.04 352 213.333l-74.667-74.666V320h-42.666z"/><glyph glyph-name="arrow-down-drop-circle" unicode="" horiz-adv-x="512" d="M256 405.333c117.76 0 213.333-95.573 213.333-213.333S373.76-21.333 256-21.333 42.667 74.24 42.667 192 138.24 405.333 256 405.333M149.333 234.667L256 128l106.667 106.667H149.333z"/><glyph glyph-name="arrow-down-drop-circle-outline" unicode="" horiz-adv-x="512" d="M256 405.333C138.24 405.333 42.667 309.76 42.667 192S138.24-21.333 256-21.333 469.333 74.24 469.333 192 373.76 405.333 256 405.333m0-42.666c94.293 0 170.667-76.374 170.667-170.667S350.293 21.333 256 21.333 85.333 97.707 85.333 192 161.707 362.667 256 362.667m-106.667-128L256 128l106.667 106.667H149.333z"/><glyph glyph-name="arrow-down-thick" unicode="" horiz-adv-x="512" d="M213.333 362.667h85.334v-192l74.666 74.666 51.627-51.626L256 24.747 87.04 193.707l51.627 51.626 74.666-74.666v192z"/><glyph glyph-name="arrow-expand" unicode="" horiz-adv-x="512" d="M213.333 0v42.667h-76.586l96 96-30.08 30.08-96-96v76.586H64V0h149.333m96 215.253l96 96v-76.586H448V384H298.667v-42.667h76.586l-96-96 30.08-30.08z"/><glyph glyph-name="arrow-expand-all" unicode="" horiz-adv-x="512" d="M202.667 168.747l30.08-30.08-96-96h76.586V0H64v149.333h42.667V72.747l96 96m30.08 76.586l-30.08-30.08-96 96v-76.586H64V384h149.333v-42.667h-76.586l96-96m76.586-76.586l96-96v76.586H448V0H298.667v42.667h76.586l-96 96 30.08 30.08m-30.08 76.586l96 96h-76.586V384H448V234.667h-42.667v76.586l-96-96-30.08 30.08z"/><glyph glyph-name="arrow-expand-down" unicode="" horiz-adv-x="512" d="M469.333 362.667v42.666H42.667v-42.666h192V60.373L117.333 177.707l-30.293-30.08L256-21.333l168.96 168.96-30.293 30.08L277.333 60.373v302.294h192z"/><glyph glyph-name="arrow-expand-horizontal" unicode="" horiz-adv-x="512" d="M192 213.333h128v64L405.333 192 320 106.667v64H192v-64L106.667 192 192 277.333v-64m-149.333-192v341.334h42.666V21.333H42.667m384 0v341.334h42.666V21.333h-42.666z"/><glyph glyph-name="arrow-expand-left" unicode="" horiz-adv-x="512" d="M426.667-21.333h42.666v426.666h-42.666v-192H124.373l117.334 117.334-30.08 30.293L42.667 192l168.96-168.96 30.08 30.293-117.334 117.334h302.294v-192z"/><glyph glyph-name="arrow-expand-right" unicode="" horiz-adv-x="512" d="M85.333 405.333H42.667V-21.333h42.666v192h302.294L270.293 53.333l30.08-30.293L469.333 192l-168.96 168.96-30.08-30.293 117.334-117.334H85.333v192z"/><glyph glyph-name="arrow-expand-up" unicode="" horiz-adv-x="512" d="M42.667 21.333v-42.666h426.666v42.666h-192v302.294l117.334-117.334 30.293 30.08L256 405.333 87.04 236.373l30.293-30.08 117.334 117.334V21.333h-192z"/><glyph glyph-name="arrow-expand-vertical" unicode="" horiz-adv-x="512" d="M277.333 256V128h64L256 42.667 170.667 128h64v128h-64L256 341.333 341.333 256h-64m-192 149.333h341.334v-42.666H85.333v42.666m0-384h341.334v-42.666H85.333v42.666z"/><glyph glyph-name="arrow-left" unicode="" horiz-adv-x="512" d="M426.667 213.333v-42.666h-256L288 53.333 257.707 23.04 88.747 192l168.96 168.96L288 330.667 170.667 213.333h256z"/><glyph glyph-name="arrow-left-bold" unicode="" horiz-adv-x="512" d="M426.667 256V128H256V24.747L88.747 192 256 359.253V256h170.667z"/><glyph glyph-name="arrow-left-bold-box" unicode="" horiz-adv-x="512" d="M448 341.333V42.667C448 19.2 428.8 0 405.333 0H106.667C83.2 0 64 19.2 64 42.667v298.666C64 364.8 83.2 384 106.667 384h298.666C428.8 384 448 364.8 448 341.333M149.333 192L256 85.333v64h85.333v85.334H256v64L149.333 192z"/><glyph glyph-name="arrow-left-bold-box-outline" unicode="" horiz-adv-x="512" d="M149.333 192L256 298.667v-64h85.333v-85.334H256v-64L149.333 192M448 341.333V42.667C448 19.2 428.8 0 405.333 0H106.667C83.2 0 64 19.2 64 42.667v298.666C64 364.8 83.2 384 106.667 384h298.666C428.8 384 448 364.8 448 341.333m-42.667 0H106.667V42.667h298.666v298.666z"/><glyph glyph-name="arrow-left-bold-circle" unicode="" horiz-adv-x="512" d="M469.333 192C469.333 74.24 373.76-21.333 256-21.333S42.667 74.24 42.667 192 138.24 405.333 256 405.333 469.333 309.76 469.333 192m-320 0L256 85.333v64h85.333v85.334H256v64L149.333 192z"/><glyph glyph-name="arrow-left-bold-circle-outline" unicode="" horiz-adv-x="512" d="M149.333 192L256 298.667v-64h85.333v-85.334H256v-64L149.333 192m320 0C469.333 74.24 373.76-21.333 256-21.333S42.667 74.24 42.667 192 138.24 405.333 256 405.333 469.333 309.76 469.333 192m-42.666 0c0 94.293-76.374 170.667-170.667 170.667S85.333 286.293 85.333 192 161.707 21.333 256 21.333 426.667 97.707 426.667 192z"/><glyph glyph-name="arrow-left-bold-hexagon-outline" unicode="" horiz-adv-x="512" d="M149.333 192L256 298.667v-64h85.333v-85.334H256v-64L149.333 192M448 96c0-8.107-4.48-15.147-11.307-18.773L268.16-17.493c-3.413-2.56-7.68-3.84-12.16-3.84s-8.747 1.28-12.16 3.84L75.307 77.227C68.48 80.853 64 87.893 64 96v192c0 8.107 4.48 15.147 11.307 18.773l168.533 94.72c3.413 2.56 7.68 3.84 12.16 3.84s8.747-1.28 12.16-3.84l168.533-94.72C443.52 303.147 448 296.107 448 288V96M256 359.467l-149.333-84.054V108.587L256 24.533l149.333 84.054v166.826L256 359.467z"/><glyph glyph-name="arrow-left-box" unicode="" horiz-adv-x="512" d="M405.333 384C428.8 384 448 364.8 448 341.333V42.667C448 19.2 428.8 0 405.333 0H106.667C83.2 0 64 19.2 64 42.667v298.666C64 365.013 83.2 384 106.667 384h298.666M384 213.333H202.667L277.333 288l-30.293 30.293L120.747 192 247.04 65.707 277.333 96l-74.666 74.667H384v42.666z"/><glyph glyph-name="arrow-left-drop-circle" unicode="" horiz-adv-x="512" d="M469.333 192C469.333 74.24 373.76-21.333 256-21.333S42.667 74.24 42.667 192 138.24 405.333 256 405.333 469.333 309.76 469.333 192M298.667 298.667L192 192 298.667 85.333v213.334z"/><glyph glyph-name="arrow-left-drop-circle-outline" unicode="" horiz-adv-x="512" d="M469.333 192c0 117.76-95.573 213.333-213.333 213.333S42.667 309.76 42.667 192 138.24-21.333 256-21.333 469.333 74.24 469.333 192m-42.666 0c0-94.293-76.374-170.667-170.667-170.667S85.333 97.707 85.333 192 161.707 362.667 256 362.667 426.667 286.293 426.667 192m-128 106.667L192 192 298.667 85.333v213.334z"/><glyph glyph-name="arrow-left-thick" unicode="" horiz-adv-x="512" d="M426.667 234.667v-85.334h-192l74.666-74.666-51.626-51.627L88.747 192l168.96 168.96 51.626-51.627-74.666-74.666h192z"/><glyph glyph-name="arrow-right" unicode="" horiz-adv-x="512" d="M85.333 213.333v-42.666h256L224 53.333l30.293-30.293L423.253 192l-168.96 168.96L224 330.667l117.333-117.334h-256z"/><glyph glyph-name="arrow-right-bold" unicode="" horiz-adv-x="512" d="M85.333 128v128H256v103.253L423.253 192 256 24.747V128H85.333z"/><glyph glyph-name="arrow-right-bold-box" unicode="" horiz-adv-x="512" d="M64 42.667v298.666C64 364.8 83.2 384 106.667 384h298.666C428.8 384 448 364.8 448 341.333V42.667C448 19.2 428.8 0 405.333 0H106.667C83.2 0 64 19.2 64 42.667M362.667 192L256 298.667v-64h-85.333v-85.334H256v-64L362.667 192z"/><glyph glyph-name="arrow-right-bold-box-outline" unicode="" horiz-adv-x="512" d="M362.667 192L256 85.333v64h-85.333v85.334H256v64L362.667 192M64 42.667v298.666C64 364.8 83.2 384 106.667 384h298.666C428.8 384 448 364.8 448 341.333V42.667C448 19.2 428.8 0 405.333 0H106.667C83.2 0 64 19.2 64 42.667m42.667 0h298.666v298.666H106.667V42.667z"/><glyph glyph-name="arrow-right-bold-circle" unicode="" horiz-adv-x="512" d="M42.667 192c0 117.76 95.573 213.333 213.333 213.333S469.333 309.76 469.333 192 373.76-21.333 256-21.333 42.667 74.24 42.667 192m320 0L256 298.667v-64h-85.333v-85.334H256v-64L362.667 192z"/><glyph glyph-name="arrow-right-bold-circle-outline" unicode="" horiz-adv-x="512" d="M362.667 192L256 85.333v64h-85.333v85.334H256v64L362.667 192m-320 0c0 117.76 95.573 213.333 213.333 213.333S469.333 309.76 469.333 192 373.76-21.333 256-21.333 42.667 74.24 42.667 192m42.666 0c0-94.293 76.374-170.667 170.667-170.667S426.667 97.707 426.667 192 350.293 362.667 256 362.667 85.333 286.293 85.333 192z"/><glyph glyph-name="arrow-right-bold-hexagon-outline" unicode="" horiz-adv-x="512" d="M362.667 192L256 85.333v64h-85.333v85.334H256v64L362.667 192M448 96c0-8.107-4.48-15.147-11.307-18.773L268.16-17.493c-3.413-2.56-7.68-3.84-12.16-3.84s-8.747 1.28-12.16 3.84L75.307 77.227C68.48 80.853 64 87.893 64 96v192c0 8.107 4.48 15.147 11.307 18.773l168.533 94.72c3.413 2.56 7.68 3.84 12.16 3.84s8.747-1.28 12.16-3.84l168.533-94.72C443.52 303.147 448 296.107 448 288V96M256 359.467l-149.333-84.054V108.587L256 24.533l149.333 84.054v166.826L256 359.467z"/><glyph glyph-name="arrow-right-box" unicode="" horiz-adv-x="512" d="M106.667 0C83.2 0 64 19.2 64 42.667v298.666C64 364.8 83.2 384 106.667 384h298.666C428.8 384 448 364.8 448 341.333V42.667C448 18.987 428.8 0 405.333 0H106.667M128 170.667h181.333L234.667 96l30.293-30.293L391.253 192 264.96 318.293 234.667 288l74.666-74.667H128v-42.666z"/><glyph glyph-name="arrow-right-drop-circle" unicode="" horiz-adv-x="512" d="M42.667 192c0 117.76 95.573 213.333 213.333 213.333S469.333 309.76 469.333 192 373.76-21.333 256-21.333 42.667 74.24 42.667 192M213.333 85.333L320 192 213.333 298.667V85.333z"/><glyph glyph-name="arrow-right-drop-circle-outline" unicode="" horiz-adv-x="512" d="M42.667 192C42.667 74.24 138.24-21.333 256-21.333S469.333 74.24 469.333 192 373.76 405.333 256 405.333 42.667 309.76 42.667 192m42.666 0c0 94.293 76.374 170.667 170.667 170.667S426.667 286.293 426.667 192 350.293 21.333 256 21.333 85.333 97.707 85.333 192m128-106.667L320 192 213.333 298.667V85.333z"/><glyph glyph-name="arrow-right-thick" unicode="" horiz-adv-x="512" d="M85.333 234.667v-85.334h192l-74.666-74.666 51.626-51.627L423.253 192l-168.96 168.96-51.626-51.627 74.666-74.666h-192z"/><glyph glyph-name="arrow-top-left" unicode="" horiz-adv-x="512" d="M405.333 72.747l-30.08-30.08-225.92 225.92V128h-42.666v213.333H320v-42.666H179.413l225.92-225.92z"/><glyph glyph-name="arrow-top-right" unicode="" horiz-adv-x="512" d="M106.667 72.747l225.92 225.92H192v42.666h213.333V128h-42.666v140.587l-225.92-225.92-30.08 30.08z"/><glyph glyph-name="arrow-up" unicode="" horiz-adv-x="512" d="M277.333 21.333h-42.666v256L117.333 160 87.04 190.293 256 359.253l168.96-168.96L394.667 160 277.333 277.333v-256z"/><glyph glyph-name="arrow-up-bold" unicode="" horiz-adv-x="512" d="M320 21.333H192V192H88.747L256 359.253 423.253 192H320V21.333z"/><glyph glyph-name="arrow-up-bold-box" unicode="" horiz-adv-x="512" d="M405.333 0H106.667C83.2 0 64 19.2 64 42.667v298.666C64 364.8 83.2 384 106.667 384h298.666C428.8 384 448 364.8 448 341.333V42.667C448 19.2 428.8 0 405.333 0M256 298.667L149.333 192h64v-85.333h85.334V192h64L256 298.667z"/><glyph glyph-name="arrow-up-bold-box-outline" unicode="" horiz-adv-x="512" d="M256 298.667L362.667 192h-64v-85.333h-85.334V192h-64L256 298.667M405.333 0H106.667C83.2 0 64 19.2 64 42.667v298.666C64 364.8 83.2 384 106.667 384h298.666C428.8 384 448 364.8 448 341.333V42.667C448 19.2 428.8 0 405.333 0m0 42.667v298.666H106.667V42.667h298.666z"/><glyph glyph-name="arrow-up-bold-circle" unicode="" horiz-adv-x="512" d="M256-21.333C138.24-21.333 42.667 74.24 42.667 192S138.24 405.333 256 405.333 469.333 309.76 469.333 192 373.76-21.333 256-21.333m0 320L149.333 192h64v-85.333h85.334V192h64L256 298.667z"/><glyph glyph-name="arrow-up-bold-circle-outline" unicode="" horiz-adv-x="512" d="M256 298.667L362.667 192h-64v-85.333h-85.334V192h-64L256 298.667m0-320C138.24-21.333 42.667 74.24 42.667 192S138.24 405.333 256 405.333 469.333 309.76 469.333 192 373.76-21.333 256-21.333m0 42.666c94.293 0 170.667 76.374 170.667 170.667S350.293 362.667 256 362.667 85.333 286.293 85.333 192 161.707 21.333 256 21.333z"/><glyph glyph-name="arrow-up-bold-hexagon-outline" unicode="" horiz-adv-x="512" d="M256 298.667L362.667 192h-64v-85.333h-85.334V192h-64L256 298.667M448 96c0-8.107-4.48-15.147-11.307-18.773L268.16-17.493c-3.413-2.56-7.68-3.84-12.16-3.84s-8.747 1.28-12.16 3.84L75.307 77.227C68.48 80.853 64 87.893 64 96v192c0 8.107 4.48 15.147 11.307 18.773l168.533 94.72c3.413 2.56 7.68 3.84 12.16 3.84s8.747-1.28 12.16-3.84l168.533-94.72C443.52 303.147 448 296.107 448 288V96M256 359.467l-149.333-84.054V108.587L256 24.533l149.333 84.054v166.826L256 359.467z"/><glyph glyph-name="arrow-up-box" unicode="" horiz-adv-x="512" d="M448 42.667C448 19.2 428.8 0 405.333 0H106.667C83.2 0 64 19.2 64 42.667v298.666C64 364.8 83.2 384 106.667 384h298.666c23.68 0 42.667-19.2 42.667-42.667V42.667M277.333 64v181.333L352 170.667l30.293 30.293L256 327.253 129.707 200.96 160 170.667l74.667 74.666V64h42.666z"/><glyph glyph-name="arrow-up-drop-circle" unicode="" horiz-adv-x="512" d="M256-21.333C138.24-21.333 42.667 74.24 42.667 192S138.24 405.333 256 405.333 469.333 309.76 469.333 192 373.76-21.333 256-21.333m106.667 170.666L256 256 149.333 149.333h213.334z"/><glyph glyph-name="arrow-up-drop-circle-outline" unicode="" horiz-adv-x="512" d="M256-21.333c117.76 0 213.333 95.573 213.333 213.333S373.76 405.333 256 405.333 42.667 309.76 42.667 192 138.24-21.333 256-21.333m0 42.666C161.707 21.333 85.333 97.707 85.333 192S161.707 362.667 256 362.667 426.667 286.293 426.667 192 350.293 21.333 256 21.333m106.667 128L256 256 149.333 149.333h213.334z"/><glyph glyph-name="arrow-up-thick" unicode="" horiz-adv-x="512" d="M298.667 21.333h-85.334v192l-74.666-74.666-51.627 51.626L256 359.253l168.96-168.96-51.627-51.626-74.666 74.666v-192z"/><glyph glyph-name="artist" unicode="" horiz-adv-x="512" d="M234.667 149.333c21.333 0 43.733-3.413 68.266-9.386-17.28-18.56-25.6-40.32-25.6-65.28 0-18.987 5.334-36.907 16.64-53.334H64V64c0 25.387 19.413 45.867 58.453 61.44 39.04 15.787 76.587 23.893 112.214 23.893m160 85.334h74.666V192h-42.666V74.667c0-14.294-4.907-27.094-15.574-37.76s-23.466-15.574-37.76-15.574c-14.933 0-27.52 4.907-37.76 15.574C325.12 47.573 320 60.373 320 74.667c0 14.933 5.12 27.52 15.573 37.76C345.813 122.88 358.4 128 373.333 128c6.4 0 13.654-1.707 21.334-4.907v111.574m-160-42.667c-23.04 0-42.667 8.32-60.16 24.96-17.067 16.64-25.174 36.693-25.174 60.373 0 23.04 8.107 42.667 25.174 60.16 17.493 17.067 37.12 25.174 60.16 25.174 23.68 0 43.733-8.107 60.373-25.174C311.68 320 320 300.373 320 277.333c0-23.68-8.32-43.733-24.96-60.373S258.347 192 234.667 192z"/><glyph glyph-name="assistant" unicode="" horiz-adv-x="512" d="M405.333 405.333H106.667C83.2 405.333 64 386.133 64 362.667V64c0-23.467 19.2-42.667 42.667-42.667H192l64-64 64 64h85.333C428.8 21.333 448 40.533 448 64v298.667c0 23.466-19.2 42.666-42.667 42.666M296.107 173.227L256 85.333l-40.107 87.894L128 213.333l87.893 40.107L256 341.333l40.107-87.893L384 213.333"/><glyph glyph-name="asterisk" unicode="" horiz-adv-x="512" d="M213.333 405.333h85.334l-16.854-168.746 137.6 98.986 42.667-73.813L307.627 192l154.453-69.76-42.667-73.813-137.6 98.986 16.854-168.746h-85.334l16.854 168.746-137.6-98.986L49.92 122.24 204.373 192 49.92 261.76l42.667 73.813 137.6-98.986-16.854 168.746z"/><glyph glyph-name="at" unicode="" horiz-adv-x="512" d="M256 128c17.28 0 32 6.4 45.013 18.987C313.6 160 320 174.72 320 192c0 17.28-6.4 32-18.987 45.013C288 249.6 273.28 256 256 256c-17.28 0-32-6.4-45.013-18.987C198.4 224 192 209.28 192 192c0-17.28 6.4-32 18.987-45.013C224 134.4 238.72 128 256 128m0 277.333c58.667 0 108.8-21.333 150.4-62.933 41.6-41.6 62.933-91.733 62.933-150.4v-30.933c0-21.334-7.466-39.467-21.333-54.4-14.933-14.294-32-21.334-53.333-21.334-25.6 0-46.72 10.667-62.72 32-21.334-21.333-46.507-32-75.947-32-29.227 0-54.4 10.667-75.52 31.147C160 137.6 149.333 162.56 149.333 192c0 29.227 10.667 54.4 31.147 75.52C201.6 288 226.773 298.667 256 298.667c29.44 0 54.4-10.667 75.52-31.147C352 246.4 362.667 221.227 362.667 192v-30.933c0-8.747 3.413-16.427 9.813-23.04 6.4-6.614 13.867-10.027 22.187-10.027 8.96 0 16.426 3.413 22.826 10.027 6.4 6.613 9.174 14.293 9.174 23.04V192c0 46.72-16.427 86.827-50.134 120.533S302.72 362.667 256 362.667s-86.827-16.427-120.533-50.134S85.333 238.72 85.333 192s16.427-86.827 50.134-120.533S209.28 21.333 256 21.333h106.667v-42.666H256C197.333-21.333 147.2 0 105.6 41.6 64 83.2 42.667 133.333 42.667 192S64 300.8 105.6 342.4c41.6 41.6 91.733 62.933 150.4 62.933z"/><glyph glyph-name="atlassian" unicode="" horiz-adv-x="512" d="M169.173 208.213c-4.053 5.12-11.733 6.4-17.066 2.347-1.494-1.28-2.774-2.773-3.627-4.48L43.947-3.2c-3.2-6.187-.64-13.653 5.546-16.853 1.707-1.28 3.84-1.28 5.76-1.28h145.494c4.693 0 9.173 2.56 11.306 6.826 31.36 65.067 11.947 163.84-42.88 222.72m76.8 190.507c-52.906-81.707-59.093-185.387-16.213-272.64l70.187-140.587c2.346-4.266 6.613-6.826 11.306-6.826h145.494c7.04 0 12.586 5.546 12.586 12.586 0 1.92 0 3.84-1.28 5.547 0 0-195.84 392.107-201.386 401.92-2.347 5.76-9.387 8.32-15.36 5.333a10.815 10.815 0 0 1-5.334-5.333z"/><glyph glyph-name="atom" unicode="" horiz-adv-x="512" d="M256 213.333c11.733 0 21.333-9.6 21.333-21.333s-9.6-21.333-21.333-21.333-21.333 9.6-21.333 21.333 9.6 21.333 21.333 21.333M90.027 357.973c30.506 30.507 96.64 16.854 165.973-28.586 69.333 45.44 135.467 59.093 165.973 28.586 30.507-30.506 16.854-96.64-28.586-165.973 45.44-69.333 59.093-135.467 28.586-165.973C391.467-4.48 325.333 9.173 256 54.613 186.667 9.173 120.533-4.48 90.027 26.027 59.52 56.533 73.173 122.667 118.613 192c-45.44 69.333-59.093 135.467-28.586 165.973M331.52 267.52c13.013-13.227 24.96-26.667 36.053-40.107 29.44 45.44 40.107 84.48 24.107 100.267-15.787 16-54.827 5.333-100.267-24.107 13.44-11.093 26.88-23.04 40.107-36.053M180.48 116.48c-13.013 13.227-24.96 26.667-36.053 40.107-29.44-45.44-40.107-84.48-24.107-100.267 15.787-16 54.827-5.333 100.267 24.107-13.44 11.093-26.88 23.04-40.107 36.053m-60.16 211.2c-16-15.787-5.333-54.827 24.107-100.267 11.093 13.44 23.04 26.88 36.053 40.107 13.227 13.013 26.667 24.96 40.107 36.053-45.44 29.44-84.48 40.107-100.267 24.107m90.453-180.907c14.934-14.933 30.294-28.586 45.227-40.746 14.933 12.16 30.293 25.813 45.227 40.746 14.933 14.934 28.586 30.294 40.746 45.227-12.16 14.933-25.813 30.293-40.746 45.227-14.934 14.933-30.294 28.586-45.227 40.746-14.933-12.16-30.293-25.813-45.227-40.746-14.933-14.934-28.586-30.294-40.746-45.227 12.16-14.933 25.813-30.293 40.746-45.227M391.68 56.32c16 15.787 5.333 54.827-24.107 100.267-11.093-13.44-23.04-26.88-36.053-40.107-13.227-13.013-26.667-24.96-40.107-36.053 45.44-29.44 84.48-40.107 100.267-24.107z"/><glyph glyph-name="attachment" unicode="" horiz-adv-x="512" d="M160 64C95.147 64 42.667 116.48 42.667 181.333S95.147 298.667 160 298.667h224c47.147 0 85.333-38.187 85.333-85.334S431.147 128 384 128H202.667c-29.44 0-53.334 23.893-53.334 53.333s23.894 53.334 53.334 53.334h160v-32h-160c-11.734 0-21.334-9.6-21.334-21.334S190.933 160 202.667 160H384c29.44 0 53.333 23.893 53.333 53.333S413.44 266.667 384 266.667H160c-47.147 0-85.333-38.187-85.333-85.334S112.853 96 160 96h202.667V64H160z"/><glyph glyph-name="audiobook" unicode="" horiz-adv-x="512" d="M384-21.333H128c-23.467 0-42.667 19.2-42.667 42.666v341.334c0 23.68 19.2 42.666 42.667 42.666h21.333V256l53.334 32L256 256v149.333h128c23.467 0 42.667-19.2 42.667-42.666V21.333c0-23.466-19.2-42.666-42.667-42.666M277.333 128c-23.466 0-42.666-19.2-42.666-42.667s19.2-42.666 42.666-42.666S320 61.867 320 85.333V192h64v42.667h-85.333V122.24c-6.187 3.627-13.654 5.76-21.334 5.76z"/><glyph glyph-name="augmented-reality" unicode="" horiz-adv-x="512" d="M106.667 384C82.987 384 64 364.8 64 341.333V42.667C64 19.2 83.2 0 106.667 0h298.666C428.8 0 448 19.2 448 42.667v298.666C448 364.8 428.8 384 405.333 384H106.667m58.666-128h32l37.334-128h-32l-6.187 21.333h-30.293L160 128h-32l37.333 128m112 0H352c18.133 0 32-13.867 32-32v-21.333c0-12.8-8.533-24.534-19.2-29.867L384 128h-32l-18.133 42.667h-24.534V128h-32v128m32-32v-21.333H352V224h-42.667m-128-22.827l-5.76-19.84h11.52l-5.76 19.84z"/><glyph glyph-name="auto-fix" unicode="" horiz-adv-x="512" d="M160 328.533l-53.333-29.866L136.533 352l-29.866 53.333L160 375.467l53.333 29.866L183.467 352l29.866-53.333L160 328.533m256-209.066l53.333 29.866L439.467 96l29.866-53.333L416 72.533l-53.333-29.866L392.533 96l-29.866 53.333L416 119.467m53.333 285.866L439.467 352l29.866-53.333L416 328.533l-53.333-29.866L392.533 352l-29.866 53.333L416 375.467l53.333 29.866M284.587 175.36l52.053 52.053-45.227 45.227-52.053-52.053 45.227-45.227m21.973 117.12l49.92-49.92c8.32-7.893 8.32-21.76 0-30.08L107.52-36.48c-8.32-8.32-22.187-8.32-30.08 0L27.52 13.44c-8.32 7.893-8.32 21.76 0 30.08l248.96 248.96c8.32 8.32 22.187 8.32 30.08 0z"/><glyph glyph-name="auto-upload" unicode="" horiz-adv-x="512" d="M114.133 178.133L138.667 256l24.533-77.867m-45.867 120.534l-68.266-192H89.6l14.933 42.666H172.8l14.933-42.666h40.534l-68.267 192m74.667-277.334h234.666V64H234.667m64 42.667h106.666v106.666h64L352 330.667 234.667 213.333h64V106.667z"/><glyph glyph-name="autorenew" unicode="" horiz-adv-x="512" d="M256 320v-64l85.333 85.333L256 426.667v-64c-94.293 0-170.667-76.374-170.667-170.667 0-33.493 9.814-64.64 26.454-90.88l31.146 31.147C133.333 149.973 128 170.667 128 192c0 70.613 57.387 128 128 128m144.213-37.12l-31.146-31.147C378.453 233.813 384 213.333 384 192c0-70.613-57.387-128-128-128v64l-85.333-85.333L256-42.667v64c94.293 0 170.667 76.374 170.667 170.667 0 33.493-9.814 64.64-26.454 90.88z"/><glyph glyph-name="av-timer" unicode="" horiz-adv-x="512" d="M234.667 85.333C234.667 73.6 244.267 64 256 64s21.333 9.6 21.333 21.333-9.6 21.334-21.333 21.334-21.333-9.6-21.333-21.334m0 298.667v-85.333h42.666v40.96c72.32-10.454 128-72.32 128-147.627 0-82.56-66.773-149.333-149.333-149.333S106.667 109.44 106.667 192c0 35.84 12.586 68.693 33.706 94.293L256 170.667l30.08 30.08-145.067 145.066v-.426C94.293 310.4 64 254.933 64 192 64 85.973 149.973 0 256 0s192 85.973 192 192-85.973 192-192 192m128-192c0 11.733-9.6 21.333-21.333 21.333s-21.334-9.6-21.334-21.333 9.6-21.333 21.334-21.333S384 180.267 384 192m-256 0c0-11.733 9.6-21.333 21.333-21.333s21.334 9.6 21.334 21.333-9.6 21.333-21.334 21.333S128 203.733 128 192z"/><glyph glyph-name="azure" unicode="" horiz-adv-x="512" d="M278.4 357.547L139.947 62.933 42.667 64l108.586 186.88L278.4 357.547m14.933-23.254l176-307.84H143.787l198.4 35.414-103.894 123.52 55.04 148.906z"/><glyph glyph-name="baby" unicode="" horiz-adv-x="512" d="M394.667 362.667c29.44 0 53.333-23.894 53.333-53.334S424.107 256 394.667 256s-53.334 23.893-53.334 53.333 23.894 53.334 53.334 53.334M96 21.333c-17.707 0-32 14.294-32 32s14.293 32 32 32h149.333c17.707 0 32-14.293 32-32s-14.293-32-32-32H96m247.253 21.334L313.387 128h-78.72L144 218.667S192 272 266.667 272c64 0 71.466-21.333 75.946-34.56L403.627 64C409.6 47.36 400.64 29.013 384 23.04c-16.64-5.76-34.987 2.987-40.747 19.627z"/><glyph glyph-name="baby-buggy" unicode="" horiz-adv-x="512" d="M277.333 405.333V234.667H448c0 94.293-76.373 170.666-170.667 170.666m134.827-296.32c22.4 28.8 35.84 65.067 35.84 104.32H137.387L117.333 256H42.667v-42.667h47.36s40.32-86.826 45.226-94.293C111.787 106.667 96 81.707 96 53.333c0-41.173 33.493-74.666 74.667-74.666 37.546 0 68.693 27.733 73.813 64h44.373c5.12-36.267 36.267-64 73.814-64 41.173 0 74.666 33.493 74.666 74.666 0 22.187-9.813 42.027-25.173 55.68m-241.493-87.68c-17.707 0-32 14.294-32 32s14.293 32 32 32 32-14.293 32-32-14.294-32-32-32m192 0c-17.707 0-32 14.294-32 32s14.293 32 32 32 32-14.293 32-32-14.294-32-32-32z"/><glyph glyph-name="backburger" unicode="" horiz-adv-x="512" d="M106.667 170.667L192 85.333 162.133 55.04 25.173 192l136.96 136.96L192 298.667l-85.333-85.334H448v-42.666H106.667M448 320v-42.667H234.667V320H448m0-213.333V64H234.667v42.667H448z"/><glyph glyph-name="backspace" unicode="" horiz-adv-x="512" d="M469.333 384h-320c-14.72 0-26.24-7.467-33.92-18.773L0 192 115.413 18.987C123.093 7.68 134.613 0 149.333 0h320C492.8 0 512 19.2 512 42.667v298.666C512 364.8 492.8 384 469.333 384m-64-268.587l-30.08-30.08-76.586 76.587-76.587-76.587-30.08 30.08L268.587 192 192 268.587l30.08 30.08 76.587-76.587 76.586 76.587 30.08-30.08L328.747 192"/><glyph glyph-name="backup-restore" unicode="" horiz-adv-x="512" d="M256 384c-106.027 0-192-85.973-192-192H0l85.333-85.333L170.667 192h-64c0 82.56 66.773 149.333 149.333 149.333S405.333 274.56 405.333 192 338.56 42.667 256 42.667c-32 0-62.08 10.666-86.613 27.733l-30.72-30.72C171.52 14.933 212.053 0 256 0c106.027 0 192 85.973 192 192s-85.973 192-192 192m42.667-192c0 23.467-19.2 42.667-42.667 42.667s-42.667-19.2-42.667-42.667 19.2-42.667 42.667-42.667 42.667 19.2 42.667 42.667z"/><glyph glyph-name="badminton" unicode="" horiz-adv-x="512" d="M262.4 405.333c-20.693-.64-36.693-17.92-36.053-38.4.213-5.12 1.28-10.026 3.413-14.933l6.187-13.653c.853-2.774-.64-5.76-3.627-6.614-1.92-1.066-4.053 0-5.547 1.707l-8.96 11.733c-7.04 8.96-17.706 14.507-29.013 14.72-20.693.427-37.76-16-38.187-36.48-.213-8.96 2.774-17.493 8.32-24.746l8.96-10.667h.214c1.706-2.773 1.066-6.187-1.28-7.893-1.92-1.494-4.48-1.494-6.187 0l-11.307 8.96c-7.253 5.546-16 8.533-24.746 8.32-20.48-.427-36.907-17.494-36.48-38.187.213-11.307 5.76-21.973 14.72-29.013l12.16-9.387c2.346-2.133 2.346-5.547-.214-7.467-1.493-1.493-3.626-1.92-5.546-1.066h-.214L96 218.24c-4.907 1.92-9.813 3.2-14.933 3.413-20.48.64-37.76-15.573-38.4-36.266 0-15.36 8.533-29.44 22.613-35.414l242.987-108.16 97.92 97.92-108.16 242.987c-5.974 14.293-20.694 23.253-35.627 22.613m17.707-87.466c8.96.213 17.066-4.907 20.48-13.014l65.066-145.92-84.266 84.054L261.547 288c-6.4 13.44 3.413 29.44 18.56 29.867M210.133 259.2c5.76 0 11.094-2.133 15.147-6.4l102.613-102.613c8.534-8.107 8.747-21.547.64-30.08-8.533-8.534-21.76-8.747-30.72 0L195.2 222.72c-8.533 8.107-8.747 21.76-.427 30.08 4.054 4.267 9.6 6.4 15.36 6.4m-58.026-70.827c2.773 0 5.76-.853 7.893-1.92l45.44-20.053 84.053-84.053-146.346 65.066c-21.76 9.387-14.507 41.6 8.96 40.96m280.533-82.56L342.187 15.36 360.32-2.773c16.213-16 39.68-22.187 61.653-16.427 21.974 5.973 39.254 23.253 45.227 45.227 5.76 21.973-.427 45.44-16.427 61.653l-18.133 18.133z"/><glyph glyph-name="bandcamp" unicode="" horiz-adv-x="512" d="M469.333 320L330.667 64h-288l138.666 256h288z"/><glyph glyph-name="bank" unicode="" horiz-adv-x="512" d="M245.333 426.667L42.667 320v-42.667H448V320m-106.667-85.333V85.333h64v149.334m-362.666-256H448v64H42.667m170.666 192V85.333h64v149.334m-192 0V85.333h64v149.334h-64z"/><glyph glyph-name="barcode" unicode="" horiz-adv-x="512" d="M42.667 320h42.666V64H42.667v256m64 0H128V64h-21.333v256m42.666 0h64V64h-64v256m85.334 0H256V64h-21.333v256m64 0h42.666V64h-42.666v256m64 0h64V64h-64v256M448 320h21.333V64H448v256z"/><glyph glyph-name="barcode-scan" unicode="" horiz-adv-x="512" d="M85.333 320H128V64H85.333v256m64 0h21.334V64h-21.334v256M192 320h64V64h-64v256m85.333 0h21.334V64h-21.334v256m64 0H384V64h-42.667v256m64 0h21.334V64h-21.334v256M42.667 362.667v-85.334H0v85.334c0 23.466 19.2 42.666 42.667 42.666H128v-42.666H42.667m426.666 42.666c23.467 0 42.667-19.2 42.667-42.666v-85.334h-42.667v85.334H384v42.666h85.333M42.667 106.667V21.333H128v-42.666H42.667C19.2-21.333 0-2.133 0 21.333v85.334h42.667m426.666-85.334v85.334H512V21.333c0-23.466-19.2-42.666-42.667-42.666H384v42.666h85.333z"/><glyph glyph-name="barley" unicode="" horiz-adv-x="512" d="M156.373 56.96c-17.706 24.747-17.706 53.333-17.706 81.707 35.626-21.334 71.04-42.667 88.96-67.627l7.04-11.947v48.64c-32 19.2-62.294 38.827-78.294 61.227-17.706 24.747-17.706 53.333-17.706 81.707 35.626-21.334 71.04-42.667 88.96-67.627l7.04-12.373v49.066c-32 19.2-62.294 38.827-78.294 61.227-17.706 24.747-17.706 53.333-17.706 81.707 35.626-21.334 71.04-42.667 88.96-67.627a71.474 71.474 0 0 0 5.76-9.6c-3.627 13.227-5.974 25.6-6.187 38.4-.213 32.213 13.867 65.28 27.947 98.347 14.72-31.574 29.44-63.36 29.653-95.574.213-13.44-2.133-27.093-5.973-40.533 1.706 2.987 3.413 5.973 5.546 8.96 17.92 24.96 53.334 46.293 88.96 67.627 0-28.374 0-56.96-17.706-81.707-16-22.4-46.294-42.027-78.294-61.227v-49.066l7.04 12.373c17.92 24.96 53.334 46.293 88.96 67.627 0-28.374 0-56.96-17.706-81.707-16-22.4-46.294-42.027-78.294-61.227v-48.64l7.04 11.947c17.92 24.96 53.334 46.293 88.96 67.627 0-28.374 0-56.96-17.706-81.707-16-22.4-46.294-42.027-78.294-61.227v-38.4h-42.666v38.4c-32 19.2-62.294 38.827-78.294 61.227z"/><glyph glyph-name="barrel" unicode="" horiz-adv-x="512" d="M384 42.667h21.333V0H106.667v42.667H128v128h-21.333v42.666H128v128h-21.333V384h298.666v-42.667H384v-128h21.333v-42.666H384v-128m-192 128c0-35.414 28.587-64 64-64s64 28.586 64 64c0 42.666-64 114.56-64 114.56s-64-71.894-64-114.56z"/><glyph glyph-name="baseball" unicode="" horiz-adv-x="512" d="M256 405.333c-53.333 0-101.333-19.2-138.667-51.2 10.667-8.746 19.414-18.56 27.734-29.013l23.253 13.44 21.333-37.12-21.333-12.16c11.947-23.253 19.84-48.853 22.613-75.947h22.4v-42.666h-22.4c-2.773-27.094-10.666-52.694-22.613-75.947l21.333-12.16-21.333-37.12-23.253 13.44c-8.32-10.453-17.067-20.267-27.734-29.013 37.334-32 85.334-51.2 138.667-51.2s101.333 19.2 138.667 51.2C384 38.613 375.253 48.427 366.72 58.88l-23.04-13.44-21.333 37.12 21.333 12.373a211.122 211.122 0 0 0-22.613 75.734h-22.4v42.666h22.4a211.122 211.122 0 0 0 22.613 75.734l-21.333 12.373 21.333 37.12 23.04-13.44c8.533 10.453 17.28 20.267 27.947 29.013-37.334 32-85.334 51.2-138.667 51.2M87.893 323.2C59.52 286.933 42.667 241.493 42.667 192c0-49.493 16.853-94.933 45.226-131.2 7.254 5.973 13.654 12.8 19.84 19.84l-13.226 7.467 21.333 37.12 15.573-9.174c8.32 16.854 14.08 35.2 16.427 54.614H128v42.666h19.84c-2.347 19.414-8.107 37.76-16.427 54.614l-15.573-9.174-21.333 37.12 13.226 7.467c-6.186 7.04-12.586 13.867-19.84 19.84m336.214 0c-7.254-5.973-13.654-12.8-19.84-19.84l13.226-7.467-21.333-37.12-15.573 9.174c-8.32-16.854-14.08-35.2-16.427-54.614H384v-42.666h-19.84c2.347-19.414 8.107-37.76 16.427-54.614l15.573 9.174 21.333-37.12-13.226-7.467c6.186-7.04 12.586-13.867 19.84-19.84 28.373 36.267 45.226 81.707 45.226 131.2 0 49.493-16.853 94.933-45.226 131.2z"/><glyph glyph-name="baseball-bat" unicode="" horiz-adv-x="512" d="M426.667 405.333c-5.974 0-10.667-2.346-15.147-6.186L208.853 196.48c-.853-.853-1.493-1.707-54.613-75.947l-68.907-69.12-6.186 6.4C74.667 61.867 69.547 64 64 64c-11.947 0-21.333-9.387-21.333-21.333 0-5.547 2.133-10.667 6.186-15.147L91.52-15.147c8.32-8.533 21.76-8.746 30.293-.64 8.534 8.32 8.747 21.76 0 30.934l-6.4 6.186L184.32 90.24l76.16 54.613L463.147 347.52c8.32 8.32 8.32 21.973 0 30.293l-21.334 21.334c-4.48 4.053-9.6 6.186-15.146 6.186m-32-234.666c-29.44 0-53.334-23.894-53.334-53.334S365.227 64 394.667 64 448 87.893 448 117.333s-23.893 53.334-53.333 53.334z"/><glyph glyph-name="basecamp" unicode="" horiz-adv-x="512" d="M42.667 101.333S85.333 368 256 368s213.333-266.667 213.333-266.667S426.667 16 256 16 42.667 101.333 42.667 101.333m28.8 12.8S91.733 42.667 256 42.667c106.667 0 170.667 25.6 184.533 67.2 13.867 41.6-106.666 176-128 176S238.933 192 222.933 192c-42.666 0-33.066 42.667-70.4 42.667-37.333 0-81.066-120.534-81.066-120.534z"/><glyph glyph-name="basket" unicode="" horiz-adv-x="512" d="M117.333 0c-16.64 0-31.146 9.6-38.186 23.467L23.467 225.28l-2.134 9.387c0 11.733 9.6 21.333 21.334 21.333h97.706l98.134 140.16c3.84 5.547 10.24 9.173 17.493 9.173 7.253 0 13.867-3.626 17.707-9.386L371.627 256h97.706c11.734 0 21.334-9.6 21.334-21.333l-.854-6.187-56.96-205.013C425.813 9.6 411.307 0 394.667 0H117.333M256 346.88L192 256h128l-64 90.88m0-176.213c-23.467 0-42.667-19.2-42.667-42.667s19.2-42.667 42.667-42.667 42.667 19.2 42.667 42.667-19.2 42.667-42.667 42.667z"/><glyph glyph-name="basket-fill" unicode="" horiz-adv-x="512" d="M64 405.333h64v-64H64v64m64-106.666h64v-64h-64v64m42.667 106.666h64v-64h-64v64m192-192L256 320h64v85.333h85.333V320h64L362.667 213.333M160-21.333c-16.64 0-31.147 9.6-38.187 23.466L66.133 161.28 64 170.667C64 182.4 73.6 192 85.333 192h341.334C438.4 192 448 182.4 448 170.667l-.853-6.187-56.96-162.347C383.147-11.733 368.64-21.333 352-21.333H160m2.347 42.666h187.306l46.507 128H115.627l46.72-128z"/><glyph glyph-name="basket-unfill" unicode="" horiz-adv-x="512" d="M64 234.667h64v64H64v-64m42.667 106.666h64v64h-64v-64m64-106.666h64v64h-64v-64m192 192L256 320h64v-85.333h85.333V320h64L362.667 426.667M160-21.333c-16.64 0-31.147 9.6-38.187 23.466L66.133 161.28 64 170.667C64 182.4 73.6 192 85.333 192h341.334C438.4 192 448 182.4 448 170.667l-.853-6.187-56.96-162.347C383.147-11.733 368.64-21.333 352-21.333H160m2.347 42.666h187.306l46.507 128H115.627l46.72-128z"/><glyph glyph-name="basketball" unicode="" horiz-adv-x="512" d="M49.92 135.893c12.8 4.694 26.027 7.04 40.107 7.04 28.586 0 53.546-8.96 74.88-26.88L97.92 49.067c-22.613 25.6-38.613 54.826-48 86.826m282.027 103.04c42.026-31.36 87.466-39.04 136.106-23.04.64-4.48 1.28-12.586 1.28-23.893 0-21.973-5.333-46.507-15.36-73.6-10.026-26.88-22.4-48.64-36.906-65.067l-135.04 134.614 49.92 50.986M187.093 93.013C209.707 60.373 214.4 24.747 200.96-14.08c-30.293 8.747-57.387 22.4-80 41.173l66.133 65.92m72.96 72.96l134.614-135.04c-46.294-40.533-100.694-57.6-162.56-50.986 4.48 14.08 6.826 29.44 6.826 46.08 0 13.226-2.986 28.8-8.96 46.506-5.973 17.707-13.013 32.214-20.906 43.52l50.986 49.92m-72.106-27.306c-19.84 17.706-42.88 28.8-68.907 33.92-26.027 4.906-50.987 3.413-75.093-4.694-.64 4.694-1.28 12.8-1.28 24.107 0 21.973 5.333 46.507 15.36 73.6 10.026 26.88 22.4 48.64 36.906 65.067l142.08-142.72-49.066-49.28m144 144.426c-28.587 35.2-35.2 73.6-19.84 114.987 13.226-3.413 28.373-9.813 45.44-19.627 16.853-9.6 30.72-19.2 41.386-28.373l-66.986-66.987m130.133-35.2c-12.8-4.48-26.027-6.826-40.107-6.826-23.253 0-45.653 6.826-66.986 20.906l65.92 65.067c18.773-23.467 32.426-49.707 41.173-79.147m-202.027-36.906l-142.72 142.08c46.294 40.533 100.694 57.6 162.774 50.986-4.694-14.08-7.04-29.44-7.04-46.08 0-15.36 3.413-32.64 10.453-52.053 7.04-19.2 15.147-34.56 25.813-45.867l-49.28-49.066z"/><glyph glyph-name="battery" unicode="" horiz-adv-x="512" d="M355.627 362.667H320v42.666H192v-42.666h-35.627c-15.573 0-28.373-12.8-28.373-28.374V7.04c0-15.573 12.8-28.373 28.373-28.373h199.254C371.2-21.333 384-8.533 384 7.04v327.253c0 15.574-12.8 28.374-28.373 28.374z"/><glyph glyph-name="battery-10" unicode="" horiz-adv-x="512" d="M341.333 64H170.667v256h170.666m14.294 42.667H320v42.666H192v-42.666h-35.627c-15.573 0-28.373-12.8-28.373-28.374V7.04c0-15.573 12.8-28.373 28.373-28.373h199.254C371.2-21.333 384-8.533 384 7.04v327.253c0 15.574-12.8 28.374-28.373 28.374z"/><glyph glyph-name="battery-20" unicode="" horiz-adv-x="512" d="M341.333 85.333H170.667V320h170.666m14.294 42.667H320v42.666H192v-42.666h-35.627c-15.573 0-28.373-12.8-28.373-28.374V7.04c0-15.573 12.8-28.373 28.373-28.373h199.254C371.2-21.333 384-8.533 384 7.04v327.253c0 15.574-12.8 28.374-28.373 28.374z"/><glyph glyph-name="battery-30" unicode="" horiz-adv-x="512" d="M341.333 128H170.667v192h170.666m14.294 42.667H320v42.666H192v-42.666h-35.627c-15.573 0-28.373-12.8-28.373-28.374V7.04c0-15.573 12.8-28.373 28.373-28.373h199.254C371.2-21.333 384-8.533 384 7.04v327.253c0 15.574-12.8 28.374-28.373 28.374z"/><glyph glyph-name="battery-40" unicode="" horiz-adv-x="512" d="M341.333 149.333H170.667V320h170.666m14.294 42.667H320v42.666H192v-42.666h-35.627c-15.573 0-28.373-12.8-28.373-28.374V7.04c0-15.573 12.8-28.373 28.373-28.373h199.254C371.2-21.333 384-8.533 384 7.04v327.253c0 15.574-12.8 28.374-28.373 28.374z"/><glyph glyph-name="battery-50" unicode="" horiz-adv-x="512" d="M341.333 170.667H170.667V320h170.666m14.294 42.667H320v42.666H192v-42.666h-35.627c-15.573 0-28.373-12.8-28.373-28.374V7.04c0-15.573 12.8-28.373 28.373-28.373h199.254C371.2-21.333 384-8.533 384 7.04v327.253c0 15.574-12.8 28.374-28.373 28.374z"/><glyph glyph-name="battery-60" unicode="" horiz-adv-x="512" d="M341.333 192H170.667v128h170.666m14.294 42.667H320v42.666H192v-42.666h-35.627c-15.573 0-28.373-12.8-28.373-28.374V7.04c0-15.573 12.8-28.373 28.373-28.373h199.254C371.2-21.333 384-8.533 384 7.04v327.253c0 15.574-12.8 28.374-28.373 28.374z"/><glyph glyph-name="battery-70" unicode="" horiz-adv-x="512" d="M341.333 234.667H170.667V320h170.666m14.294 42.667H320v42.666H192v-42.666h-35.627c-15.573 0-28.373-12.8-28.373-28.374V7.04c0-15.573 12.8-28.373 28.373-28.373h199.254C371.2-21.333 384-8.533 384 7.04v327.253c0 15.574-12.8 28.374-28.373 28.374z"/><glyph glyph-name="battery-80" unicode="" horiz-adv-x="512" d="M341.333 256H170.667v64h170.666m14.294 42.667H320v42.666H192v-42.666h-35.627c-15.573 0-28.373-12.8-28.373-28.374V7.04c0-15.573 12.8-28.373 28.373-28.373h199.254C371.2-21.333 384-8.533 384 7.04v327.253c0 15.574-12.8 28.374-28.373 28.374z"/><glyph glyph-name="battery-90" unicode="" horiz-adv-x="512" d="M341.333 277.333H170.667V320h170.666m14.294 42.667H320v42.666H192v-42.666h-35.627c-15.573 0-28.373-12.8-28.373-28.374V7.04c0-15.573 12.8-28.373 28.373-28.373h199.254C371.2-21.333 384-8.533 384 7.04v327.253c0 15.574-12.8 28.374-28.373 28.374z"/><glyph glyph-name="battery-alert" unicode="" horiz-adv-x="512" d="M277.333 149.333h-42.666V256h42.666m0-192h-42.666v42.667h42.666m78.294 256H320v42.666H192v-42.666h-35.627c-15.573 0-28.373-12.8-28.373-28.374V7.04c0-15.573 12.8-28.373 28.373-28.373h199.254C371.2-21.333 384-8.533 384 7.04v327.253c0 15.574-12.8 28.374-28.373 28.374z"/><glyph glyph-name="battery-charging" unicode="" horiz-adv-x="512" d="M355.627 362.667H320v42.666H192v-42.666h-35.627c-15.573 0-28.373-12.8-28.373-28.374V7.253c0-15.786 12.8-28.586 28.373-28.586h199.04C371.2-21.333 384-8.533 384 7.04v327.253c0 15.574-12.8 28.374-28.373 28.374M234.667 21.333v117.334H192l85.333 160V181.333H320"/><glyph glyph-name="battery-charging-10" unicode="" horiz-adv-x="512" d="M491.733 213.333h-64v149.334L321.067 149.333h64V-21.333M256 64H85.333L86.4 320h170.667m14.293 42.667h-35.627v42.666h-128v-42.666H72.107c-15.574 0-28.374-12.8-28.374-28.374V7.04c0-15.573 12.8-28.373 28.374-28.373H271.36c15.573 0 28.373 12.8 28.373 28.373v327.253c0 15.574-12.8 28.374-28.373 28.374z"/><glyph glyph-name="battery-charging-100" unicode="" horiz-adv-x="512" d="M490.667 213.333h-64v149.334L320 149.333h64V-21.333m-113.707 384h-35.626v42.666h-128v-42.666H71.04c-15.573 0-28.373-12.8-28.373-28.374V7.04c0-15.573 12.8-28.373 28.373-28.373h199.253c15.574 0 28.374 12.8 28.374 28.373v327.253c0 15.574-12.8 28.374-28.374 28.374z"/><glyph glyph-name="battery-charging-20" unicode="" horiz-adv-x="512" d="M491.733 213.333h-64v149.334L321.067 149.333h64V-21.333m-128 106.666H86.4V320h170.667m14.293 42.667h-35.627v42.666h-128v-42.666H72.107c-15.574 0-28.374-12.8-28.374-28.374V7.04c0-15.573 12.8-28.373 28.374-28.373H271.36c15.573 0 28.373 12.8 28.373 28.373v327.253c0 15.574-12.8 28.374-28.373 28.374z"/><glyph glyph-name="battery-charging-30" unicode="" horiz-adv-x="512" d="M256 128H85.333v192H256m14.293 42.667h-35.626v42.666h-128v-42.666H71.04c-15.573 0-28.373-12.8-28.373-28.374V7.04c0-15.573 12.8-28.373 28.373-28.373h199.253c15.574 0 28.374 12.8 28.374 28.373v327.253c0 15.574-12.8 28.374-28.374 28.374m220.374-149.334h-64v149.334L320 149.333h64V-21.333l106.667 234.666z"/><glyph glyph-name="battery-charging-40" unicode="" horiz-adv-x="512" d="M490.667 213.333h-64v149.334L320 149.333h64V-21.333m-128 192H85.333V320H256m14.293 42.667h-35.626v42.666h-128v-42.666H71.04c-15.573 0-28.373-12.8-28.373-28.374V7.04c0-15.573 12.8-28.373 28.373-28.373h199.253c15.574 0 28.374 12.8 28.374 28.373v327.253c0 15.574-12.8 28.374-28.374 28.374z"/><glyph glyph-name="battery-charging-50" unicode="" horiz-adv-x="512" d="M490.667 213.333h-64v149.334L320 149.333h64V-21.333m-128 192H85.333V320H256m14.293 42.667h-35.626v42.666h-128v-42.666H71.04c-15.573 0-28.373-12.8-28.373-28.374V7.04c0-15.573 12.8-28.373 28.373-28.373h199.253c15.574 0 28.374 12.8 28.374 28.373v327.253c0 15.574-12.8 28.374-28.374 28.374z"/><glyph glyph-name="battery-charging-60" unicode="" horiz-adv-x="512" d="M256 213.333H85.333V320H256m14.293 42.667h-35.626v42.666h-128v-42.666H71.04c-15.573 0-28.373-12.8-28.373-28.374V7.04c0-15.573 12.8-28.373 28.373-28.373h199.253c15.574 0 28.374 12.8 28.374 28.373v327.253c0 15.574-12.8 28.374-28.374 28.374m220.374-149.334h-64v149.334L320 149.333h64V-21.333l106.667 234.666z"/><glyph glyph-name="battery-charging-70" unicode="" horiz-adv-x="512" d="M256 234.667H85.333V320H256m14.293 42.667h-35.626v42.666h-128v-42.666H71.04c-15.573 0-28.373-12.8-28.373-28.374V7.04c0-15.573 12.8-28.373 28.373-28.373h199.253c15.574 0 28.374 12.8 28.374 28.373v327.253c0 15.574-12.8 28.374-28.374 28.374m220.374-149.334h-64v149.334L320 149.333h64V-21.333l106.667 234.666z"/><glyph glyph-name="battery-charging-80" unicode="" horiz-adv-x="512" d="M490.667 213.333h-64v149.334L320 149.333h64V-21.333M256 256H85.333v64H256m14.293 42.667h-35.626v42.666h-128v-42.666H71.04c-15.573 0-28.373-12.8-28.373-28.374V7.04c0-15.573 12.8-28.373 28.373-28.373h199.253c15.574 0 28.374 12.8 28.374 28.373v327.253c0 15.574-12.8 28.374-28.374 28.374z"/><glyph glyph-name="battery-charging-90" unicode="" horiz-adv-x="512" d="M490.667 213.333h-64v149.334L320 149.333h64V-21.333M256 277.333H85.333V320H256m14.293 42.667h-35.626v42.666h-128v-42.666H71.04c-15.573 0-28.373-12.8-28.373-28.374V7.04c0-15.573 12.8-28.373 28.373-28.373h199.253c15.574 0 28.374 12.8 28.374 28.373v327.253c0 15.574-12.8 28.374-28.374 28.374z"/><glyph glyph-name="battery-charging-outline" unicode="" horiz-adv-x="512" d="M491.733 213.333h-64v149.334L321.067 149.333h64V-21.333M256 21.333H85.333L86.4 320h170.667m14.293 42.667h-35.627v42.666h-128v-42.666H72.107c-15.574 0-28.374-12.8-28.374-28.374V7.04c0-15.573 12.8-28.373 28.374-28.373H271.36c15.573 0 28.373 12.8 28.373 28.373v327.253c0 15.574-12.8 28.374-28.373 28.374z"/><glyph glyph-name="battery-charging-wireless" unicode="" horiz-adv-x="512" d="M277.333 362.667h-42.666v42.666h-128v-42.666H64c-11.733 0-21.333-9.6-21.333-21.334V0c0-11.733 9.6-21.333 21.333-21.333h213.333c11.734 0 21.334 9.6 21.334 21.333v341.333c0 11.734-9.6 21.334-21.334 21.334m150.827-19.84l-30.08-30.08c66.773-66.56 66.773-174.72 0-241.494l30.08-30.08c83.2 83.2 83.2 218.24 0 301.654m-60.373-60.374l-30.08-30.08c33.28-33.28 33.28-87.253 0-120.746l30.08-30.08c49.92 49.92 49.92 130.986 0 180.906z"/><glyph glyph-name="battery-charging-wireless-10" unicode="" horiz-adv-x="512" d="M428.16 342.827l-30.08-30.08c66.773-66.56 66.773-174.72 0-241.494l30.08-30.08c83.2 83.2 83.2 218.24 0 301.654m-60.373-60.374l-30.08-30.08c33.28-33.28 33.28-87.253 0-120.746l30.08-30.08c49.92 49.92 49.92 130.986 0 180.906m-90.454 80.214h-42.666v42.666h-128v-42.666H64c-11.733 0-21.333-9.6-21.333-21.334V0c0-11.733 9.6-21.333 21.333-21.333h213.333c11.734 0 21.334 9.6 21.334 21.333v341.333c0 11.734-9.6 21.334-21.334 21.334M256 53.333H85.333V320H256V53.333z"/><glyph glyph-name="battery-charging-wireless-20" unicode="" horiz-adv-x="512" d="M428.16 342.827l-30.08-30.08c66.773-66.56 66.773-174.72 0-241.494l30.08-30.08c83.2 83.2 83.2 218.24 0 301.654m-60.373-60.374l-30.08-30.08c33.28-33.28 33.28-87.253 0-120.746l30.08-30.08c49.92 49.92 49.92 130.986 0 180.906m-90.454 80.214h-42.666v42.666h-128v-42.666H64c-11.733 0-21.333-9.6-21.333-21.334V0c0-11.733 9.6-21.333 21.333-21.333h213.333c11.734 0 21.334 9.6 21.334 21.333v341.333c0 11.734-9.6 21.334-21.334 21.334M256 85.333H85.333V320H256V85.333z"/><glyph glyph-name="battery-charging-wireless-30" unicode="" horiz-adv-x="512" d="M428.16 342.827l-30.08-30.08c66.773-66.56 66.773-174.72 0-241.494l30.08-30.08c83.2 83.2 83.2 218.24 0 301.654m-60.373-60.374l-30.08-30.08c33.28-33.28 33.28-87.253 0-120.746l30.08-30.08c49.92 49.92 49.92 130.986 0 180.906m-90.454 80.214h-42.666v42.666h-128v-42.666H64c-11.733 0-21.333-9.6-21.333-21.334V0c0-11.733 9.6-21.333 21.333-21.333h213.333c11.734 0 21.334 9.6 21.334 21.333v341.333c0 11.734-9.6 21.334-21.334 21.334m-21.333-256H85.333V320H256V106.667z"/></font>
</defs>
</svg>
